<?xml version="1.0" encoding="UTF-8"?>
<!-- Generator: Adobe Illustrator 19.0.0, SVG Export Plug-In . SVG Version: 6.00 Build 0)  -->
<svg version="1.1" id="Calque_1" xmlns="http://www.w3.org/2000/svg" xmlns:xlink="http://www.w3.org/1999/xlink" x="0px" y="0px" viewBox="0 0 390 60" style="enable-background:new 0 0 390 60;" xml:space="preserve">
<style type="text/css">
	.st0{fill:#1D1D1B;}
	.st1{fill:#AC2824;}
	.st2{fill:#909294;}
	.st3{fill:#423C3C;}
</style>
<g>
	<path class="st0" d="M84.7,28.2c-0.2,0.6-0.4,1.3-0.6,1.9c-0.2,0.6-0.5,1.2-0.9,1.7c-0.4,0.5-1,0.9-1.6,1.2   c-0.7,0.3-1.6,0.5-2.7,0.5c-0.9,0-1.7-0.1-2.4-0.4c-0.7-0.3-1.3-0.7-1.8-1.4c-0.5-0.7-1.4-1.6-1.7-2.7c-0.3-1.2,0-2.6,0-4.4   c0-0.6,0-1.3,0.1-2c0-0.7,0.1-1.4,0.3-2.1c0.1-0.7,0.3-1.3,0.6-1.9c0.3-0.6,0.6-1.1,1-1.6c0.4-0.5,1-0.8,1.6-1.1   c0.6-0.3,1.4-0.4,2.3-0.4c0.9,0,1.7,0.1,2.4,0.4c0.6,0.3,1.2,0.7,1.6,1.1c0.4,0.5,0.7,1,1,1.6c0.2,0.6,0.4,1.3,0.6,1.9l0,0.1h0.5   v-5.3h-0.5l0,0c-0.1,0.1-0.2,0.2-0.4,0.4c-0.1,0.1-0.3,0.1-0.7,0.1c-0.2,0-0.5-0.1-0.7-0.1c-0.3-0.1-0.6-0.2-0.9-0.3   c-0.3-0.1-0.7-0.2-1.1-0.3C80.1,15,79.6,15,79.1,15c-1.3,0-2.5,0.3-3.6,0.8c-1.1,0.5-2.1,1.2-2.9,2.1c-0.8,0.9-1.5,1.9-1.9,3.1   c-0.5,1.2-0.7,2.4-0.7,3.7c0,1.5,0.3,2.8,0.8,4c0.6,1.1,1.3,2.1,2.1,3c0.9,0.9,1.9,1.5,2.9,1.9c1,0.4,2.1,0.6,3.1,0.6   c0.6,0,1.1,0,1.6-0.1c0.5-0.1,0.9-0.2,1.3-0.3l1-0.3c0.6-0.2,1.2-0.2,1.4,0c0.1,0.1,0.3,0.2,0.4,0.3l0,0h0.5v-5.6L84.7,28.2   L84.7,28.2z"/>
	<path class="st0" d="M96.4,15L96.4,15L95.6,15l-6.8,18.2h-2.3v0.6h5.7v-0.6h-2.8l2.6-6.8h5.7l2.6,6.8h-2.8v0.6h8v-0.6h-2.3L96.4,15   z M97.4,25.7h-5.3l2.6-6.9L97.4,25.7z"/>
	<path class="st0" d="M119.5,25.1c-0.5-0.4-1.1-0.7-1.8-0.9c-0.4-0.1-0.9-0.2-1.3-0.3c0.4-0.1,0.8-0.2,1.1-0.3   c0.5-0.2,1-0.5,1.5-0.9c0.4-0.4,0.8-0.8,1-1.3c0.3-0.5,0.4-1,0.4-1.6c0-0.4-0.1-0.9-0.3-1.4c-0.2-0.5-0.5-1-1-1.4   c-0.5-0.4-1.1-0.8-1.9-1.1c-1-0.4-2.2-0.5-3.8-0.4c-0.3,0-0.5,0-0.8,0c-0.3,0-0.5,0-0.8,0c-0.3,0-0.5,0-0.8,0h-4.6V16h2.8v17.1   h-2.8v0.6h4.6c0.3,0,0.6,0,0.9,0c0.3,0,0.5,0,0.8,0c0.3,0,0.5,0,0.7,0c0.2,0,0.5,0,0.7,0c1.2,0,2.2-0.1,3.1-0.4   c0.9-0.3,1.6-0.6,2.2-1.1c0.6-0.5,1-1,1.3-1.7c0.3-0.6,0.4-1.4,0.4-2.1c0-0.7-0.2-1.4-0.5-2C120.5,25.9,120.1,25.5,119.5,25.1z    M112.2,24.2h2.7c1.1,0,1.9,0.4,2.5,1.1c0.6,0.8,0.8,1.8,0.8,3.1c0,0.9-0.1,1.7-0.2,2.3c-0.2,0.6-0.4,1.1-0.8,1.5   c-0.3,0.4-0.8,0.6-1.3,0.8c-0.6,0.2-1.2,0.2-2,0.2c-0.5,0-0.8,0-1,0c-0.2,0-0.4,0-0.6-0.1V24.2z M116.6,22.8   c-0.3,0.3-0.6,0.5-1,0.6c-0.4,0.1-0.8,0.2-1.3,0.2h-2.2V16c0.2,0,0.4,0,0.7,0c0.8,0,1.5,0,2.2,0.1c0.4,0.1,0.8,0.3,1.2,0.5   c0.3,0.3,0.6,0.6,0.9,1.2c0.2,0.5,0.3,1.2,0.3,2.1c0,0.8-0.1,1.4-0.2,1.9C117.1,22.2,116.9,22.6,116.6,22.8z"/>
	<polygon class="st0" points="123.7,16 126.5,16 126.5,33.1 123.7,33.1 123.7,33.7 132.1,33.7 132.1,33.1 129.3,33.1 129.3,16    132.1,16 132.1,15.4 123.7,15.4  "/>
	<polygon class="st0" points="144.6,16 147.4,16 147.4,29 139,15.5 138.9,15.4 133.3,15.4 133.3,16 136.1,16 136.1,33.1 133.3,33.1    133.3,33.7 139.6,33.7 139.6,33.1 136.8,33.1 136.8,17.2 147.3,34 147.3,34.1 148,34.1 148,16 150.8,16 150.8,15.4 144.6,15.4  "/>
	<path class="st0" d="M167.2,28c0,0.4-0.2,0.9-0.4,1.5c-0.2,0.6-0.5,1.1-0.8,1.7c-0.4,0.5-0.9,1-1.5,1.4c-0.6,0.4-1.4,0.6-2.3,0.6   h-4.7v-8.9h1.9c0.6,0,1.1,0.1,1.4,0.3c0.4,0.2,0.7,0.5,0.9,0.8c0.2,0.3,0.4,0.7,0.5,1.2c0.1,0.5,0.3,0.9,0.4,1.4l0,0.1h0.5v-8.1   h-0.5l0,0.1c-0.2,0.8-0.4,1.4-0.6,1.9c-0.2,0.5-0.4,0.8-0.7,1.1c-0.3,0.3-0.6,0.4-1,0.5c-0.4,0.1-0.9,0.1-1.4,0.1h-1.5V16h4.1   c0.7,0,1.3,0.1,1.7,0.2c0.5,0.2,0.9,0.4,1.2,0.7c0.3,0.3,0.6,0.8,0.9,1.2c0.3,0.5,0.5,1.1,0.7,1.7l0,0.1h0.5v-4.6H152V16h2.8v17.1   H152v0.6h15.7v-5.8L167.2,28L167.2,28z"/>
	<path class="st0" d="M170.1,20.3h0.5l0-0.1c0.3-1,0.6-1.8,1-2.4c0.4-0.6,0.8-1,1.2-1.2c0.4-0.3,0.8-0.4,1.2-0.5   c0.4-0.1,0.8-0.1,1.1-0.1h1.4v17.1h-2.8v0.6h8.4v-0.6h-2.8V16h1.4c0.3,0,0.7,0,1.1,0.1c0.4,0.1,0.8,0.2,1.2,0.5   c0.4,0.3,0.8,0.7,1.2,1.2c0.4,0.6,0.7,1.4,1,2.4l0,0.1h0.5v-4.9h-15.6V20.3z"/>
	<path class="st0" d="M207.1,16.7c-0.6-0.4-1.3-0.8-2.2-1c-0.8-0.2-1.7-0.3-2.7-0.3c-0.2,0-0.5,0-0.7,0c-0.2,0-0.5,0-0.7,0   c-0.2,0-0.5,0-0.7,0c-0.2,0-0.5,0-0.7,0h-4.9V16h2.8v17.1h-2.8v0.6h8.4v-0.6h-2.8V25c0.3,0,0.6,0.1,0.9,0.1c0.4,0,0.7,0.1,0.9,0.1   c0.9,0,1.8-0.1,2.7-0.3c0.9-0.2,1.6-0.5,2.3-1c0.7-0.4,1.2-0.9,1.6-1.5c0.4-0.6,0.6-1.3,0.6-2.1c0-0.7-0.2-1.4-0.5-2   C208.2,17.6,207.7,17.1,207.1,16.7z M205.9,20.3c0,1.5-0.3,2.5-1,3.3c-0.7,0.7-1.6,1.1-2.8,1.1c-0.3,0-0.6,0-1-0.1   c-0.3,0-0.7-0.1-1-0.1V16c0.1,0,0.3,0,0.5,0c0.3,0,0.6,0,0.9,0c0.8,0,1.5,0.1,2.1,0.2c0.6,0.1,1,0.4,1.4,0.7   c0.3,0.3,0.6,0.8,0.8,1.3C205.8,18.7,205.9,19.4,205.9,20.3z"/>
	<path class="st0" d="M225.8,28c-0.4,1.6-1,2.8-1.8,3.8c-0.8,0.9-2,1.4-3.4,1.4h-4.4V16h2.8v-0.6h-8.4V16h2.8v17.1h-2.8v0.6h15.7   v-5.8L225.8,28L225.8,28z"/>
	<path class="st0" d="M237.7,15L237.7,15l-0.8-0.1L230,33.1h-2.3v0.6h5.7v-0.6h-2.8l2.6-6.8h5.7l2.6,6.8h-2.8v0.6h8v-0.6h-2.3   L237.7,15z M238.7,25.7h-5.3l2.6-6.9L238.7,25.7z"/>
	<path class="st0" d="M260,24.4c-0.5-0.3-1-0.6-1.5-0.8c-0.5-0.2-0.9-0.3-1.2-0.4l-3.1-1c-0.4-0.1-0.9-0.3-1.3-0.5   c-0.4-0.2-0.8-0.4-1.1-0.6c-0.3-0.2-0.6-0.6-0.8-0.9c-0.2-0.4-0.3-0.8-0.3-1.3c0-0.7,0.1-1.2,0.4-1.6c0.3-0.4,0.6-0.8,1-1   c0.4-0.3,0.9-0.4,1.3-0.6c0.5-0.1,0.9-0.2,1.3-0.2c0.7,0,1.3,0.1,1.9,0.4c0.5,0.3,1,0.6,1.4,1c0.4,0.4,0.7,0.9,0.9,1.5   c0.2,0.6,0.4,1.1,0.5,1.7l0,0.1h0.5v-4.8h-0.5l0,0.1c-0.2,0.3-0.2,0.4-0.3,0.4c0,0-0.1,0.1-0.4,0.1c-0.2,0-0.4,0-0.7-0.1   c-0.2-0.1-0.5-0.2-0.8-0.3c-0.3-0.1-0.6-0.2-1-0.4c-0.4-0.1-0.9-0.2-1.5-0.2c-0.8,0-1.6,0.1-2.3,0.4c-0.7,0.3-1.3,0.7-1.8,1.1   c-0.5,0.5-0.9,1.1-1.2,1.7c-0.3,0.7-0.4,1.4-0.4,2.2c0,1.2,0.4,2.2,1.1,2.9c0.7,0.7,1.8,1.3,3.2,1.7l2.9,0.9   c0.3,0.1,0.7,0.2,1.1,0.4c0.4,0.2,0.7,0.4,1.1,0.7c0.3,0.3,0.6,0.6,0.8,1c0.2,0.4,0.3,0.9,0.3,1.5c0,0.4-0.1,0.8-0.2,1.3   c-0.1,0.5-0.4,0.9-0.7,1.3c-0.3,0.4-0.8,0.7-1.3,1c-0.6,0.3-1.3,0.4-2.2,0.4c-0.3,0-0.7,0-1,0c-0.4,0-0.7-0.1-1.1-0.2   c-0.4-0.1-0.8-0.3-1.2-0.5c-0.4-0.2-0.7-0.5-1.1-0.9c-0.3-0.4-0.7-0.9-1-1.5c-0.3-0.6-0.5-1.4-0.7-2.3l0-0.1h-0.5v5.7h0.6l0-0.1   c0.1-0.2,0.1-0.3,0.2-0.4c0.1-0.1,0.2-0.1,0.4-0.1c0.3,0,0.6,0.1,1,0.2c0.4,0.1,0.7,0.2,1.1,0.4c0.3,0.1,0.6,0.2,0.8,0.2   c0.2,0,0.5,0.1,0.7,0.1c0.2,0,0.5,0.1,0.8,0.1c0.3,0,0.6,0,0.9,0c1,0,1.9-0.2,2.7-0.5c0.8-0.3,1.5-0.8,2.1-1.3   c0.6-0.6,1-1.2,1.3-1.9c0.3-0.7,0.5-1.5,0.5-2.3c0-0.9-0.2-1.6-0.5-2.2C260.8,25.2,260.4,24.8,260,24.4z"/>
	<path class="st0" d="M277,24.4c-0.5-0.3-1-0.6-1.5-0.8c-0.5-0.2-0.9-0.3-1.2-0.4l-3.1-1c-0.4-0.1-0.9-0.3-1.3-0.5   c-0.4-0.2-0.8-0.4-1.1-0.6c-0.3-0.2-0.6-0.6-0.8-0.9c-0.2-0.4-0.3-0.8-0.3-1.3c0-0.7,0.1-1.2,0.4-1.6c0.3-0.4,0.6-0.8,1-1   c0.4-0.3,0.9-0.4,1.3-0.6c0.5-0.1,0.9-0.2,1.3-0.2c0.7,0,1.3,0.1,1.9,0.4c0.5,0.3,1,0.6,1.4,1c0.4,0.4,0.7,0.9,0.9,1.5   c0.2,0.6,0.4,1.1,0.5,1.7l0,0.1h0.5v-4.8h-0.5l0,0.1c-0.2,0.3-0.2,0.4-0.3,0.4c0,0-0.1,0.1-0.4,0.1c-0.2,0-0.4,0-0.7-0.1   c-0.2-0.1-0.5-0.2-0.8-0.3c-0.3-0.1-0.6-0.2-1-0.4c-0.4-0.1-0.9-0.2-1.5-0.2c-0.8,0-1.6,0.1-2.3,0.4c-0.7,0.3-1.3,0.7-1.8,1.1   c-0.5,0.5-0.9,1.1-1.2,1.7c-0.3,0.7-0.4,1.4-0.4,2.2c0,1.2,0.4,2.2,1.1,2.9c0.7,0.7,1.8,1.3,3.2,1.7l2.9,0.9   c0.3,0.1,0.7,0.2,1.1,0.4c0.4,0.2,0.7,0.4,1.1,0.7c0.3,0.3,0.6,0.6,0.8,1c0.2,0.4,0.3,0.9,0.3,1.5c0,0.4-0.1,0.8-0.2,1.3   c-0.1,0.5-0.4,0.9-0.7,1.3c-0.3,0.4-0.8,0.7-1.3,1c-0.6,0.3-1.3,0.4-2.2,0.4c-0.3,0-0.7,0-1,0c-0.4,0-0.7-0.1-1.1-0.2   c-0.4-0.1-0.8-0.3-1.2-0.5c-0.4-0.2-0.7-0.5-1.1-0.9c-0.3-0.4-0.7-0.9-1-1.5c-0.3-0.6-0.5-1.4-0.7-2.3l0-0.1h-0.5v5.7h0.6l0-0.1   c0.1-0.2,0.1-0.3,0.2-0.4c0.1-0.1,0.2-0.1,0.4-0.1c0.3,0,0.6,0.1,1,0.2c0.4,0.1,0.7,0.2,1.1,0.4c0.3,0.1,0.6,0.2,0.8,0.2   c0.2,0,0.5,0.1,0.7,0.1c0.2,0,0.5,0.1,0.8,0.1c0.3,0,0.6,0,0.9,0c1,0,1.9-0.2,2.7-0.5c0.8-0.3,1.5-0.8,2.1-1.3   c0.6-0.6,1-1.2,1.3-1.9c0.3-0.7,0.5-1.5,0.5-2.3c0-0.9-0.2-1.6-0.5-2.2C277.9,25.2,277.4,24.8,277,24.4z"/>
	<path class="st0" d="M296.7,28c-0.1,0.4-0.2,0.9-0.4,1.5c-0.2,0.6-0.5,1.1-0.8,1.7c-0.4,0.5-0.9,1-1.5,1.4   c-0.6,0.4-1.4,0.6-2.3,0.6H287v-8.9h1.9c0.6,0,1.1,0.1,1.4,0.3c0.4,0.2,0.7,0.5,0.9,0.8c0.2,0.3,0.4,0.7,0.5,1.2   c0.1,0.5,0.2,0.9,0.4,1.4l0,0.1h0.5v-8.1h-0.5l0,0.1c-0.2,0.8-0.4,1.4-0.6,1.9c-0.2,0.5-0.4,0.8-0.7,1.1c-0.3,0.3-0.6,0.4-0.9,0.5   c-0.4,0.1-0.8,0.1-1.4,0.1H287V16h4.1c0.7,0,1.3,0.1,1.7,0.2c0.5,0.2,0.9,0.4,1.2,0.7c0.3,0.3,0.6,0.8,0.9,1.2   c0.3,0.5,0.5,1.1,0.7,1.7l0,0.1h0.5v-4.6h-14.7V16h2.8v17.1h-2.8v0.6h15.7v-5.8L296.7,28L296.7,28z"/>
	<path class="st0" d="M327,15L327,15l-0.8-0.1l-6.8,18.2h-2.1l-0.4-0.5l-0.1,0.1c-0.2,0.2-0.4,0.3-0.6,0.4c-0.2,0.1-0.4,0.1-0.6,0.1   c-0.5,0-0.8-0.2-1-0.5c-0.2-0.3-0.4-0.7-0.5-1.2c-0.1-0.3-0.1-0.6-0.1-1c0-0.4-0.1-0.9-0.1-1.3c0-0.5-0.1-0.9-0.1-1.3   c0-0.4-0.1-0.8-0.2-1.2c-0.2-0.6-0.5-1.1-0.9-1.5c-0.4-0.4-0.9-0.7-1.4-0.9c-0.5-0.2-1-0.4-1.4-0.5c-0.2,0-0.4-0.1-0.5-0.1   c0.7-0.1,1.4-0.3,1.8-0.6c0.6-0.4,1.1-0.7,1.4-1.2c0.3-0.4,0.5-0.9,0.6-1.3c0.1-0.4,0.1-0.7,0.1-1c0-0.5-0.1-1.1-0.4-1.7   c-0.3-0.6-0.7-1.1-1.3-1.6c-0.7-0.5-1.4-0.9-2.2-1c-0.8-0.1-1.7-0.2-2.7-0.2c-0.2,0-0.4,0-0.6,0c-0.2,0-0.4,0-0.6,0   c-0.2,0-0.4,0-0.6,0c-0.2,0-0.4,0-0.6,0h-4.9V16h2.8v17.1h-2.8v0.6h8.4v-0.6H305v-8.9h2.4c0.3,0,0.6,0,1,0.1c0.4,0,0.7,0.2,1.1,0.4   c0.3,0.2,0.7,0.5,0.9,1c0.3,0.5,0.4,1.1,0.5,1.9l0.2,2.3c0.1,0.6,0.1,1.2,0.3,1.7c0.1,0.5,0.3,0.9,0.6,1.3c0.3,0.3,0.7,0.6,1.1,0.8   c0.5,0.2,1,0.3,1.7,0.3c0.4,0,0.7,0,0.9-0.1c0.3,0,0.5-0.1,0.6-0.2c0.2-0.1,0.3-0.1,0.4-0.2c0.1-0.1,0.1-0.1,0.2-0.2v0.4h5.7v-0.6   H320l2.6-6.8h5.7l2.6,6.8h-2.8v0.6h8v-0.6h-2.3L327,15z M328,25.7h-5.3l2.6-6.9L328,25.7z M310.3,19.8c0,0.8-0.1,1.4-0.2,1.9   c-0.1,0.5-0.4,0.9-0.6,1.2c-0.3,0.3-0.6,0.5-1,0.6c-0.4,0.1-0.8,0.2-1.3,0.2H305V16c0.2,0,0.4,0,0.7,0c0.3,0,0.6,0,0.9,0   c0.4,0,0.9,0,1.3,0.1c0.4,0.1,0.8,0.3,1.2,0.5c0.3,0.3,0.6,0.6,0.9,1.2C310.2,18.2,310.3,18.9,310.3,19.8z"/>
	<path class="st0" d="M347.9,16h2.8v11.7c0,0.6,0,1.1-0.1,1.5c-0.1,0.4-0.1,0.8-0.2,1c-0.1,0.3-0.2,0.5-0.3,0.8   c-0.1,0.2-0.3,0.4-0.4,0.7c-0.5,0.7-1.1,1.2-1.8,1.4c-0.7,0.3-1.5,0.4-2.5,0.4c-0.7,0-1.3-0.1-1.8-0.3c-0.5-0.2-0.9-0.5-1.3-0.9   c-0.3-0.4-0.6-1-0.8-1.7c-0.2-0.7-0.3-1.5-0.3-2.5V16h2.8v-0.6h-8.4V16h2.8v11.9c0,2.1,0.6,3.7,1.6,4.7c1.1,1,2.7,1.5,4.7,1.5   c1.3,0,2.4-0.2,3.3-0.6c0.8-0.4,1.5-0.9,1.9-1.5c0.5-0.6,0.8-1.3,1-1.9c0.2-0.6,0.2-1.3,0.2-2V16h2.8v-0.6h-6.2V16z"/>
	<path class="st0" d="M373.2,21.8c-0.2-0.9-0.6-1.7-1.1-2.5c-0.5-0.8-1.1-1.4-1.9-2c-0.8-0.6-1.7-1-2.7-1.4c-0.4-0.1-0.7-0.2-1-0.3   c-0.3-0.1-0.7-0.1-1-0.2c-0.4,0-0.7-0.1-1.1-0.1c-0.4,0-0.8,0-1.4,0c-0.2,0-0.5,0-0.7,0c-0.2,0-0.5,0-0.7,0c-0.2,0-0.5,0-0.7,0   c-0.2,0-0.5,0-0.7,0h-4.8V16h2.8v17.1h-2.8v0.6h4.4c0.3,0,0.5,0,0.8,0c0.3,0,0.6,0,0.8,0c0.3,0,0.6,0,0.9,0c0.3,0,0.6,0,0.8,0   c0.6,0,1.1,0,1.6,0c0.5,0,0.9-0.1,1.3-0.1c0.4,0,0.8-0.1,1.1-0.2c0.4-0.1,0.8-0.2,1.2-0.4c0.7-0.3,1.4-0.7,2.1-1.2   c0.6-0.5,1.2-1.1,1.7-1.8c0.5-0.7,0.9-1.5,1.1-2.4c0.3-0.9,0.4-1.9,0.4-3C373.5,23.6,373.4,22.7,373.2,21.8z M370.4,24.7   c0,1.1-0.1,2.2-0.3,3.1c-0.2,0.9-0.6,1.9-1.1,2.8c-0.3,0.6-0.7,1.1-1.2,1.4c-0.4,0.4-0.9,0.6-1.4,0.8c-0.5,0.2-1,0.3-1.6,0.4   c-0.6,0.1-1.1,0.1-1.7,0.1c-0.5,0-0.9,0-1.3,0c-0.3,0-0.6,0-0.9-0.1V16c0.3,0,0.6,0,0.9,0c0.4,0,0.7,0,1.2,0c1.4,0,2.6,0.2,3.5,0.6   c0.9,0.4,1.7,1,2.3,1.8c0.6,0.8,1,1.7,1.2,2.7C370.2,22.1,370.4,23.3,370.4,24.7z"/>
</g>
<g>
	<path class="st1" d="M32.6,3.4c7,3.2,7.8,17.2,1.7,31.5c-4,9.5-10.1,16.7-15.8,19.6c2.8,1,5.8,1.6,8.9,1.6   c14.6,0,26.4-11.9,26.5-26.6C53.9,16.6,44.8,5.9,32.6,3.4"/>
	<path class="st1" d="M4.1,42.3c0.1,6.5,2.2,11.4,6.1,13c2.5,1.1,5.4,0.7,8.4-0.8C12.4,52.3,7.3,48,4.1,42.3"/>
	<rect x="17.1" y="23.1" class="st2" width="6.8" height="6.8"/>
</g>
<path class="st3" d="M83.9,40.2v1.3c-0.6-0.7-1.3-1.3-2.3-1.7c-0.9-0.4-1.9-0.7-2.8-0.7c-1.9,0-3.5,0.7-4.8,2.1c-1.4,1.4-2,3-2,4.9  c0,1.8,0.7,3.4,2,4.7c0.7,0.6,1.4,1.1,2.3,1.5c0.9,0.4,1.7,0.6,2.6,0.6c0.9,0,1.8-0.2,2.8-0.7c1-0.4,1.7-1,2.3-1.7v1.3  c-1.5,1.3-3.2,1.9-5,1.9c-2.1,0-4-0.8-5.5-2.3C71.8,49.9,71,48.1,71,46c0-2.1,0.8-4,2.3-5.5c1.6-1.5,3.4-2.3,5.6-2.3  C80.8,38.2,82.5,38.9,83.9,40.2z"/>
<path class="st3" d="M90.7,44.1c1.4,0,2.5,0.5,3.5,1.4c0.9,0.9,1.4,2.1,1.4,3.4c0,1.4-0.5,2.5-1.4,3.4c-0.9,0.9-2.1,1.4-3.5,1.4  c-1.3,0-2.5-0.5-3.4-1.4c-0.9-0.9-1.4-2.1-1.4-3.4c0-1.3,0.5-2.5,1.4-3.4C88.2,44.6,89.4,44.1,90.7,44.1z M90.6,44.9  c-1.1,0-2,0.4-2.7,1.2c-0.7,0.8-1.1,1.7-1.1,2.8c0,1.1,0.4,2,1.1,2.8c0.7,0.8,1.7,1.2,2.7,1.2c1.1,0,2.1-0.4,2.9-1.1  c0.8-0.8,1.2-1.7,1.2-2.8c0-1.1-0.4-2.1-1.2-2.9C92.8,45.3,91.8,44.9,90.6,44.9z"/>
<path class="st3" d="M98.8,44.3v1.4h0c0.3-0.5,0.6-0.9,1.1-1.2c0.5-0.3,1-0.4,1.6-0.4c1.1,0,1.9,0.3,2.4,1c0.4,0.6,0.7,1.6,0.7,2.9  v5.6h-0.9V48c0-0.5,0-0.9-0.1-1.2c0-0.3-0.1-0.6-0.3-0.9c-0.1-0.3-0.4-0.5-0.7-0.7c-0.3-0.2-0.7-0.2-1.2-0.2c-1.8,0-2.7,1.3-2.7,4  v4.6h-0.9v-9.3H98.8z"/>
<path class="st3" d="M112.6,45.6l-0.8,0.4c-0.3-0.7-0.9-1-1.6-1c-0.4,0-0.8,0.1-1.1,0.4c-0.3,0.3-0.5,0.6-0.5,1c0,0.4,0.2,0.7,0.5,1  c0.3,0.3,0.7,0.5,1.1,0.6c0.4,0.2,0.9,0.3,1.3,0.5c0.4,0.2,0.8,0.5,1.1,0.9c0.3,0.4,0.5,0.9,0.5,1.5c0,0.8-0.3,1.5-0.9,2.1  c-0.6,0.5-1.3,0.8-2.1,0.8c-0.8,0-1.5-0.2-2-0.7c-0.6-0.4-1-1-1.2-1.8l0.9-0.3c0.4,1.3,1.2,1.9,2.3,1.9c0.6,0,1.1-0.2,1.5-0.6  c0.4-0.4,0.6-0.9,0.6-1.5c0-0.5-0.2-0.9-0.5-1.1c-0.3-0.3-0.8-0.5-1.3-0.7c-0.4-0.2-0.8-0.3-1-0.4c-0.2-0.1-0.5-0.3-0.8-0.5  c-0.3-0.2-0.5-0.5-0.7-0.7c-0.1-0.3-0.2-0.6-0.2-1c0-0.7,0.2-1.2,0.7-1.7c0.5-0.4,1.1-0.7,1.8-0.7c0.5,0,0.9,0.1,1.4,0.4  C112,44.8,112.4,45.1,112.6,45.6z"/>
<path class="st3" d="M123.6,49h-8c0,1.2,0.3,2.1,1,2.8c0.7,0.7,1.6,1.1,2.7,1.1c0.7,0,1.3-0.2,1.9-0.6c0.6-0.4,1-0.9,1.4-1.5  l0.8,0.4c-0.9,1.7-2.3,2.5-4.2,2.5c-1.3,0-2.4-0.5-3.3-1.4c-0.8-0.9-1.2-2.1-1.2-3.4c0-1.3,0.4-2.5,1.3-3.4c0.8-0.9,1.9-1.4,3.2-1.4  c1.4,0,2.5,0.5,3.3,1.4C123.2,46.5,123.6,47.6,123.6,49z M115.5,48.2h7.1c-0.1-0.9-0.5-1.6-1.2-2.3c-0.7-0.6-1.4-1-2.4-1  c-0.9,0-1.8,0.3-2.5,1C116,46.5,115.6,47.3,115.5,48.2z"/>
<path class="st3" d="M126.1,40.6c0.2-0.2,0.4-0.2,0.6-0.2c0.2,0,0.4,0.1,0.6,0.2c0.2,0.2,0.2,0.4,0.2,0.6c0,0.2-0.1,0.4-0.2,0.6  c-0.2,0.2-0.4,0.2-0.6,0.2c-0.2,0-0.4-0.1-0.6-0.2c-0.2-0.2-0.2-0.4-0.2-0.6C125.9,41,126,40.8,126.1,40.6z M127.2,44.3v9.3h-0.9  v-9.3H127.2z"/>
<path class="st3" d="M131.7,37v16.6h-0.9V37H131.7z"/>
<path class="st3" d="M139.6,45.6l-0.8,0.4c-0.3-0.7-0.9-1-1.6-1c-0.4,0-0.8,0.1-1.1,0.4c-0.3,0.3-0.5,0.6-0.5,1c0,0.4,0.2,0.7,0.5,1  c0.3,0.3,0.7,0.5,1.1,0.6c0.4,0.2,0.9,0.3,1.3,0.5c0.4,0.2,0.8,0.5,1.1,0.9c0.3,0.4,0.5,0.9,0.5,1.5c0,0.8-0.3,1.5-0.9,2.1  c-0.6,0.5-1.3,0.8-2.1,0.8c-0.8,0-1.5-0.2-2-0.7c-0.6-0.4-1-1-1.1-1.8l0.9-0.3c0.4,1.3,1.2,1.9,2.3,1.9c0.6,0,1.1-0.2,1.5-0.6  c0.4-0.4,0.6-0.9,0.6-1.5c0-0.5-0.2-0.9-0.5-1.1c-0.3-0.3-0.8-0.5-1.3-0.7c-0.4-0.2-0.8-0.3-1-0.4c-0.2-0.1-0.5-0.3-0.8-0.5  c-0.3-0.2-0.5-0.5-0.7-0.7c-0.1-0.3-0.2-0.6-0.2-1c0-0.7,0.2-1.2,0.7-1.7c0.5-0.4,1.1-0.7,1.8-0.7c0.5,0,0.9,0.1,1.4,0.4  C139,44.8,139.4,45.1,139.6,45.6z"/>
<path class="st3" d="M157,49h-8c0,1.2,0.3,2.1,1,2.8c0.7,0.7,1.6,1.1,2.7,1.1c0.7,0,1.3-0.2,1.9-0.6c0.6-0.4,1-0.9,1.4-1.5l0.8,0.4  c-0.9,1.7-2.3,2.5-4.1,2.5c-1.3,0-2.4-0.5-3.3-1.4c-0.8-0.9-1.2-2.1-1.2-3.4c0-1.3,0.4-2.5,1.3-3.4c0.8-0.9,1.9-1.4,3.2-1.4  c1.4,0,2.5,0.5,3.3,1.4C156.6,46.5,157,47.6,157,49z M148.9,48.2h7.1c-0.1-0.9-0.5-1.6-1.2-2.3c-0.7-0.6-1.4-1-2.4-1  c-0.9,0-1.8,0.3-2.4,1C149.4,46.5,149,47.3,148.9,48.2z"/>
<path class="st3" d="M160.2,44.3v1.4h0c0.3-0.5,0.6-0.9,1.1-1.2c0.5-0.3,1-0.4,1.6-0.4c1.1,0,1.9,0.3,2.4,1c0.4,0.6,0.7,1.6,0.7,2.9  v5.6h-0.9V48c0-0.5,0-0.9-0.1-1.2c0-0.3-0.1-0.6-0.3-0.9c-0.1-0.3-0.4-0.5-0.7-0.7c-0.3-0.2-0.7-0.2-1.2-0.2c-1.8,0-2.7,1.3-2.7,4  v4.6h-0.9v-9.3H160.2z"/>
<path class="st3" d="M176.7,46.4v7.2h-1V38.4h2.7c0.7,0,1.3,0.1,1.9,0.2c0.5,0.1,1,0.3,1.4,0.7c0.9,0.8,1.4,1.8,1.4,3.1  c0,0.6-0.1,1.1-0.3,1.7c-0.2,0.5-0.5,1-0.9,1.3c-0.7,0.6-1.9,1-3.4,1H176.7z M176.7,45.5h1.7c1.1,0,2-0.3,2.6-0.8  c0.7-0.6,1-1.4,1-2.3c0-1.1-0.4-1.9-1.1-2.4c-0.5-0.4-1.4-0.6-2.6-0.6h-1.6V45.5z"/>
<path class="st3" d="M186.1,44.3v1.2h0c0.4-0.9,1.1-1.4,2-1.4c0.3,0,0.6,0.1,1,0.2l-0.5,0.8c-0.2-0.1-0.4-0.2-0.6-0.2  c-0.3,0-0.5,0-0.7,0.1c-0.2,0.1-0.4,0.2-0.5,0.3c-0.1,0.1-0.3,0.3-0.3,0.5c-0.1,0.2-0.2,0.4-0.2,0.6c0,0.2-0.1,0.4-0.1,0.7  c0,0.3,0,0.5,0,0.7c0,0.1,0,0.4,0,0.6c0,0.1,0,0.2,0,0.2v4.7h-0.9v-9.3H186.1z"/>
<path class="st3" d="M194.8,44.1c1.4,0,2.5,0.5,3.5,1.4c0.9,0.9,1.4,2.1,1.4,3.4c0,1.4-0.5,2.5-1.4,3.4c-0.9,0.9-2.1,1.4-3.5,1.4  c-1.3,0-2.5-0.5-3.4-1.4c-0.9-0.9-1.4-2.1-1.4-3.4c0-1.3,0.5-2.5,1.4-3.4C192.4,44.6,193.5,44.1,194.8,44.1z M194.8,44.9  c-1.1,0-2,0.4-2.7,1.2c-0.7,0.8-1.1,1.7-1.1,2.8c0,1.1,0.4,2,1.1,2.8c0.7,0.8,1.7,1.2,2.7,1.2c1.1,0,2.1-0.4,2.9-1.1  c0.8-0.8,1.2-1.7,1.2-2.8c0-1.1-0.4-2.1-1.2-2.9C196.9,45.3,195.9,44.9,194.8,44.9z"/>
<path class="st3" d="M203,44.3V46h0c0.3-0.6,0.8-1,1.5-1.4c0.7-0.3,1.3-0.5,2-0.5c1.4,0,2.5,0.5,3.3,1.4c0.8,0.9,1.3,2.1,1.3,3.5  c0,1.4-0.4,2.5-1.2,3.4c-0.8,0.9-1.9,1.3-3.3,1.3c-0.7,0-1.4-0.2-2.1-0.5c-0.6-0.3-1.1-0.8-1.5-1.3h0v7H202V44.3H203z M206.5,44.9  c-1.1,0-2,0.4-2.7,1.2c-0.6,0.8-1,1.8-1,3c0,1.1,0.3,2,1,2.7c0.7,0.7,1.6,1.1,2.7,1.1c1.1,0,1.9-0.4,2.6-1.1c0.7-0.8,1-1.7,1-2.7  c0-1.1-0.3-2.1-1-2.9C208.5,45.3,207.6,44.9,206.5,44.9z"/>
<path class="st3" d="M214.3,44.3v1.2h0c0.4-0.9,1.1-1.4,2-1.4c0.3,0,0.6,0.1,1,0.2l-0.5,0.8c-0.2-0.1-0.4-0.2-0.6-0.2  c-0.3,0-0.5,0-0.7,0.1c-0.2,0.1-0.4,0.2-0.5,0.3c-0.1,0.1-0.2,0.3-0.3,0.5c-0.1,0.2-0.2,0.4-0.2,0.6c0,0.2-0.1,0.4-0.1,0.7  c0,0.3,0,0.5,0,0.7c0,0.1,0,0.4,0,0.6c0,0.1,0,0.2,0,0.2v4.7h-0.9v-9.3H214.3z"/>
<path class="st3" d="M219.4,40.6c0.2-0.2,0.4-0.2,0.6-0.2s0.4,0.1,0.6,0.2c0.2,0.2,0.2,0.4,0.2,0.6c0,0.2-0.1,0.4-0.2,0.6  c-0.2,0.2-0.4,0.2-0.6,0.2s-0.4-0.1-0.6-0.2c-0.2-0.2-0.2-0.4-0.2-0.6C219.1,41,219.2,40.8,219.4,40.6z M220.4,44.3v9.3h-0.9v-9.3  H220.4z"/>
<path class="st3" d="M232,49h-8c0,1.2,0.3,2.1,1,2.8c0.7,0.7,1.6,1.1,2.7,1.1c0.7,0,1.3-0.2,1.9-0.6c0.6-0.4,1-0.9,1.4-1.5l0.8,0.4  c-0.9,1.7-2.3,2.5-4.2,2.5c-1.3,0-2.4-0.5-3.2-1.4c-0.8-0.9-1.2-2.1-1.2-3.4c0-1.3,0.4-2.5,1.3-3.4c0.8-0.9,1.9-1.4,3.2-1.4  c1.4,0,2.5,0.5,3.3,1.4C231.6,46.5,232,47.6,232,49z M224,48.2h7.1c-0.1-0.9-0.5-1.6-1.2-2.3c-0.7-0.6-1.4-1-2.4-1  c-0.9,0-1.8,0.3-2.4,1C224.4,46.5,224.1,47.3,224,48.2z M228.3,39.2l1.2,0.4l-2.5,2.9l-0.8-0.3L228.3,39.2z"/>
<path class="st3" d="M235.4,45.1v8.4h-0.9v-8.4h-1v-0.8h1V41h0.9v3.3h1.6v0.8H235.4z"/>
<path class="st3" d="M246.7,49h-8c0,1.2,0.3,2.1,1,2.8c0.7,0.7,1.6,1.1,2.7,1.1c0.7,0,1.3-0.2,1.9-0.6c0.6-0.4,1-0.9,1.4-1.5  l0.8,0.4c-0.9,1.7-2.3,2.5-4.2,2.5c-1.3,0-2.4-0.5-3.2-1.4c-0.8-0.9-1.2-2.1-1.2-3.4c0-1.3,0.4-2.5,1.3-3.4c0.8-0.9,1.9-1.4,3.2-1.4  c1.4,0,2.5,0.5,3.3,1.4C246.3,46.5,246.7,47.6,246.7,49z M238.7,48.2h7.1c-0.1-0.9-0.5-1.6-1.2-2.3c-0.7-0.6-1.4-1-2.4-1  c-0.9,0-1.8,0.3-2.5,1C239.2,46.5,238.8,47.3,238.7,48.2z M243,39.2l1.2,0.4l-2.5,2.9l-0.8-0.3L243,39.2z"/>
<path class="st3" d="M256.5,38.4v15.1h-1V38.4H256.5z"/>
<path class="st3" d="M260.7,44.3v1.4h0c0.3-0.5,0.6-0.9,1.1-1.2c0.5-0.3,1-0.4,1.6-0.4c1.1,0,1.9,0.3,2.4,1c0.4,0.6,0.7,1.6,0.7,2.9  v5.6h-0.9V48c0-0.5,0-0.9-0.1-1.2c0-0.3-0.1-0.6-0.3-0.9c-0.1-0.3-0.4-0.5-0.7-0.7c-0.3-0.2-0.7-0.2-1.2-0.2c-1.8,0-2.7,1.3-2.7,4  v4.6h-0.9v-9.3H260.7z"/>
<path class="st3" d="M277,53.6v-1.7h0c-0.3,0.6-0.8,1-1.5,1.4c-0.7,0.3-1.3,0.5-2,0.5c-1.4,0-2.5-0.5-3.3-1.4  c-0.8-0.9-1.3-2.1-1.3-3.5c0-1.4,0.4-2.5,1.2-3.4c0.8-0.9,1.9-1.4,3.3-1.4c0.7,0,1.4,0.2,2,0.5c0.6,0.3,1.1,0.8,1.5,1.3h0V37h0.9  v16.6H277z M273.4,52.9c1.1,0,2-0.4,2.7-1.2c0.6-0.8,1-1.8,1-3c0-1.1-0.3-2-1-2.7c-0.7-0.7-1.6-1.1-2.7-1.1c-1,0-1.9,0.4-2.6,1.2  c-0.7,0.8-1,1.7-1,2.7c0,1.1,0.3,2.1,1,2.9C271.4,52.5,272.3,52.9,273.4,52.9z"/>
<path class="st3" d="M286.7,44.3h0.9v5.6c0,0.4,0,0.8,0,1c0,0.2-0.1,0.5-0.1,0.8c-0.1,0.3-0.2,0.6-0.4,0.9c-0.6,0.8-1.6,1.2-2.8,1.2  c-1.2,0-2.1-0.4-2.8-1.2c-0.2-0.2-0.3-0.5-0.4-0.9c-0.1-0.3-0.1-0.6-0.2-0.8c0-0.2,0-0.5,0-1v-5.6h0.9v5.2c0,0.5,0,1,0.1,1.3  c0,0.4,0.1,0.7,0.3,1c0.2,0.3,0.4,0.6,0.7,0.8c0.3,0.2,0.8,0.3,1.3,0.3c0.5,0,1-0.1,1.3-0.3c0.3-0.2,0.6-0.4,0.7-0.8  c0.2-0.3,0.3-0.7,0.3-1c0-0.3,0.1-0.8,0.1-1.3V44.3z"/>
<path class="st3" d="M295.4,45.6l-0.8,0.4c-0.3-0.7-0.9-1-1.6-1c-0.4,0-0.8,0.1-1.1,0.4c-0.3,0.3-0.5,0.6-0.5,1c0,0.4,0.2,0.7,0.5,1  c0.3,0.3,0.7,0.5,1.1,0.6c0.4,0.2,0.9,0.3,1.3,0.5c0.4,0.2,0.8,0.5,1.1,0.9c0.3,0.4,0.5,0.9,0.5,1.5c0,0.8-0.3,1.5-0.9,2.1  c-0.6,0.5-1.3,0.8-2.1,0.8c-0.8,0-1.5-0.2-2-0.7c-0.6-0.4-1-1-1.2-1.8l0.9-0.3c0.4,1.3,1.2,1.9,2.3,1.9c0.6,0,1.1-0.2,1.5-0.6  c0.4-0.4,0.6-0.9,0.6-1.5c0-0.5-0.2-0.9-0.5-1.1c-0.3-0.3-0.8-0.5-1.3-0.7c-0.4-0.2-0.8-0.3-1-0.4c-0.2-0.1-0.5-0.3-0.8-0.5  c-0.3-0.2-0.5-0.5-0.7-0.7c-0.2-0.3-0.2-0.6-0.2-1c0-0.7,0.2-1.2,0.7-1.7c0.5-0.4,1.1-0.7,1.8-0.7c0.5,0,0.9,0.1,1.4,0.4  C294.9,44.8,295.2,45.1,295.4,45.6z"/>
<path class="st3" d="M299.4,45.1v8.4h-0.9v-8.4h-1v-0.8h1V41h0.9v3.3h1.6v0.8H299.4z"/>
<path class="st3" d="M303.6,44.3v1.2h0c0.4-0.9,1.1-1.4,2-1.4c0.3,0,0.6,0.1,1,0.2l-0.5,0.8c-0.2-0.1-0.4-0.2-0.6-0.2  c-0.3,0-0.5,0-0.7,0.1c-0.2,0.1-0.4,0.2-0.5,0.3c-0.1,0.1-0.2,0.3-0.3,0.5c-0.1,0.2-0.2,0.4-0.2,0.6c0,0.2-0.1,0.4-0.1,0.7  c0,0.3,0,0.5,0,0.7c0,0.1,0,0.4,0,0.6c0,0.1,0,0.2,0,0.2v4.7h-0.9v-9.3H303.6z"/>
<path class="st3" d="M308.7,40.6c0.2-0.2,0.4-0.2,0.6-0.2c0.2,0,0.4,0.1,0.6,0.2c0.2,0.2,0.2,0.4,0.2,0.6c0,0.2-0.1,0.4-0.2,0.6  c-0.2,0.2-0.4,0.2-0.6,0.2c-0.2,0-0.4-0.1-0.6-0.2c-0.2-0.2-0.2-0.4-0.2-0.6C308.4,41,308.5,40.8,308.7,40.6z M309.7,44.3v9.3h-0.9  v-9.3H309.7z"/>
<path class="st3" d="M321.3,49h-8c0,1.2,0.3,2.1,1,2.8c0.7,0.7,1.6,1.1,2.7,1.1c0.7,0,1.3-0.2,1.9-0.6c0.6-0.4,1-0.9,1.4-1.5  l0.8,0.4c-0.9,1.7-2.3,2.5-4.2,2.5c-1.3,0-2.4-0.5-3.2-1.4c-0.8-0.9-1.3-2.1-1.3-3.4c0-1.3,0.4-2.5,1.3-3.4c0.8-0.9,1.9-1.4,3.2-1.4  c1.4,0,2.4,0.5,3.3,1.4C320.9,46.5,321.3,47.6,321.3,49z M313.3,48.2h7.1c-0.1-0.9-0.5-1.6-1.2-2.3c-0.7-0.6-1.4-1-2.4-1  c-0.9,0-1.7,0.3-2.4,1C313.7,46.5,313.4,47.3,313.3,48.2z"/>
<path class="st3" d="M324.6,37v16.6h-0.9V37H324.6z"/>
<path class="st3" d="M328.7,37v16.6h-0.9V37H328.7z"/>
<path class="st3" d="M340,49h-8c0,1.2,0.3,2.1,1,2.8c0.7,0.7,1.6,1.1,2.7,1.1c0.7,0,1.3-0.2,1.9-0.6c0.6-0.4,1-0.9,1.4-1.5l0.8,0.4  c-0.9,1.7-2.3,2.5-4.2,2.5c-1.3,0-2.4-0.5-3.2-1.4c-0.8-0.9-1.2-2.1-1.2-3.4c0-1.3,0.4-2.5,1.3-3.4c0.8-0.9,1.9-1.4,3.2-1.4  c1.4,0,2.4,0.5,3.3,1.4C339.6,46.5,340,47.6,340,49z M331.9,48.2h7.1c-0.1-0.9-0.5-1.6-1.2-2.3c-0.7-0.6-1.4-1-2.4-1  c-0.9,0-1.8,0.3-2.5,1C332.4,46.5,332,47.3,331.9,48.2z"/>
</svg>