<?xml version="1.0" encoding="UTF-8"?>
<svg width="122px" height="26px" viewBox="0 0 122 26" version="1.1" xmlns="http://www.w3.org/2000/svg" xmlns:xlink="http://www.w3.org/1999/xlink">
    <!-- Generator: Sketch 50.2 (55047) - http://www.bohemiancoding.com/sketch -->
    <title>Group</title>
    <desc>Created with Sketch.</desc>
    <defs>
        <polygon id="path-1" points="0.7987 0.847 20.0047 0.847 20.0047 25.4057 0.7987 25.4057"></polygon>
        <polygon id="path-3" points="0 0.8915 12.3076 0.8915 12.3076 22.4265 0 22.4265"></polygon>
        <polygon id="path-5" points="0 26.1533 153.086 26.1533 153.086 1.0003 0 1.0003"></polygon>
    </defs>
    <g id="HP" stroke="none" stroke-width="1" fill="none" fill-rule="evenodd">
        <g id="HP-Global-Eng" transform="translate(-35.000000, -24.000000)">
            <g id="Group" transform="translate(35.000000, 23.000000)">
                <path d="M23.0044,6.5436 C22.6494,10.3286 20.8564,14.6356 17.7334,18.4976 C15.0684,21.7936 11.8844,24.2126 8.7534,25.5596 C9.9594,25.9436 11.2434,26.1526 12.5764,26.1526 C19.5234,26.1526 25.1524,20.5226 25.1524,13.5766 C25.1524,10.9716 24.3604,8.5516 23.0044,6.5436" id="Fill-1" fill="#04617D"></path>
                <path d="M14.7818,1.1969 C15.7168,4.2009 15.7508,7.9419 14.6598,11.7459 C12.9998,17.5289 9.2118,21.8159 5.2198,22.9969 C8.1848,22.4399 11.3308,21.0629 14.2198,18.8839 C19.2338,15.1029 22.1418,9.9159 22.2038,5.4869 C20.3448,3.2779 17.7428,1.7199 14.7818,1.1969" id="Fill-3" fill="#F37C66"></path>
                <g id="Group-7" transform="translate(3.000000, 0.153300)">
                    <mask id="mask-2" fill="white">
                        <use xlink:href="#path-1"></use>
                    </mask>
                    <g id="Clip-6"></g>
                    <path d="M19.2037,5.3337 C19.1417,9.7627 16.2337,14.9497 11.2197,18.7307 C8.3307,20.9097 5.1847,22.2867 2.2207,22.8437 C6.2117,21.6627 9.9997,17.3757 11.6597,11.5927 C12.7507,7.7887 12.7167,4.0477 11.7817,1.0437 C11.0657,0.9167 10.3297,0.8467 9.5767,0.8467 C9.2317,0.8467 8.8907,0.8637 8.5537,0.8917 C9.0387,2.7437 9.3077,4.7747 9.3077,6.9067 C9.3077,14.8297 5.6047,21.3757 0.7987,22.4267 C0.9937,22.6167 1.1957,22.8007 1.4027,22.9777 C1.4227,22.9937 1.4407,23.0117 1.4607,23.0277 C2.7077,24.0817 4.1607,24.8987 5.7537,25.4057 C8.8847,24.0597 12.0687,21.6407 14.7337,18.3447 C17.8557,14.4817 19.6487,10.1757 20.0047,6.3907 C19.7567,6.0227 19.4877,5.6717 19.2037,5.3337" id="Fill-5" fill="#FEFEFE" mask="url(#mask-2)"></path>
                </g>
                <g id="Group-10" transform="translate(0.000000, 0.153300)">
                    <mask id="mask-4" fill="white">
                        <use xlink:href="#path-3"></use>
                    </mask>
                    <g id="Clip-9"></g>
                    <path d="M-0.0004,13.4235 C-0.0004,16.9535 1.4566,20.1425 3.7986,22.4265 C8.6046,21.3755 12.3076,14.8295 12.3076,6.9065 C12.3076,4.7755 12.0386,2.7435 11.5536,0.8915 C5.0866,1.4125 -0.0004,6.8215 -0.0004,13.4235" id="Fill-8" fill="#04617D" mask="url(#mask-4)"></path>
                </g>
                <path d="M32.6851,12.1823 C32.6851,13.2173 32.8421,14.1503 33.1581,14.9773 C33.4721,15.8053 33.9041,16.5033 34.4531,17.0723 C35.0001,17.6413 35.6491,18.0783 36.3951,18.3823 C37.1411,18.6873 37.9521,18.8393 38.8251,18.8393 C39.3421,18.8393 39.8451,18.7383 40.3321,18.5353 C40.8211,18.3313 41.2721,18.0683 41.6891,17.7433 C42.1051,17.4173 42.4751,17.0513 42.8011,16.6453 C43.1251,16.2403 43.3951,15.8283 43.6081,15.4113 L44.6601,16.0813 C44.3551,16.5793 43.9951,17.0593 43.5781,17.5213 C43.1611,17.9843 42.6791,18.3903 42.1301,18.7403 C41.5821,19.0903 40.9621,19.3723 40.2721,19.5853 C39.5811,19.7993 38.8091,19.9063 37.9561,19.9063 C36.7271,19.9063 35.6081,19.7003 34.5971,19.2883 C33.5861,18.8773 32.7231,18.3193 32.0071,17.6133 C31.2911,16.9073 30.7381,16.0873 30.3461,15.1533 C29.9561,14.2183 29.7601,13.2283 29.7601,12.1823 C29.7601,11.1363 29.9601,10.1403 30.3621,9.1963 C30.7631,8.2513 31.3301,7.4213 32.0611,6.7043 C32.7911,5.9893 33.6681,5.4203 34.6881,4.9983 C35.7091,4.5783 36.8381,4.3673 38.0791,4.3673 C38.8711,4.3673 39.5991,4.4733 40.2641,4.6863 C40.9291,4.9003 41.5371,5.1813 42.0841,5.5323 C42.6331,5.8823 43.1231,6.2883 43.5551,6.7503 C43.9871,7.2133 44.3551,7.6933 44.6601,8.1903 L43.5781,8.9073 C42.9481,7.6983 42.2521,6.8173 41.4911,6.2633 C40.7291,5.7093 39.8451,5.4333 38.8401,5.4333 C37.9871,5.4333 37.1841,5.5873 36.4331,5.8983 C35.6811,6.2073 35.0291,6.6543 34.4751,7.2383 C33.9211,7.8233 33.4851,8.5313 33.1641,9.3643 C32.8451,10.1963 32.6851,11.1363 32.6851,12.1823" id="Fill-11" fill="#04617D"></path>
                <path d="M53.2212,18.9616 C53.6682,18.9616 54.0762,18.8476 54.4482,18.6186 C54.8192,18.3906 55.1382,18.0796 55.4082,17.6896 C55.6762,17.2986 55.8872,16.8436 56.0392,16.3256 C56.1922,15.8076 56.2682,15.2596 56.2682,14.6806 C56.2682,13.8476 56.1982,13.0706 56.0552,12.3496 C55.9122,11.6286 55.6822,10.9986 55.3622,10.4606 C55.0412,9.9226 54.6252,9.4986 54.1132,9.1886 C53.6002,8.8786 52.9722,8.7236 52.2312,8.7236 C51.8452,8.7236 51.4752,8.8356 51.1192,9.0596 C50.7632,9.2816 50.4492,9.5846 50.1742,9.9656 C49.9012,10.3466 49.6822,10.7906 49.5202,11.2986 C49.3572,11.8066 49.2762,12.3496 49.2762,12.9286 C49.2762,13.7616 49.3642,14.5436 49.5422,15.2736 C49.7192,16.0056 49.9772,16.6456 50.3112,17.1936 C50.6472,17.7426 51.0582,18.1746 51.5452,18.4886 C52.0342,18.8036 52.5912,18.9616 53.2212,18.9616 M52.7952,19.7996 C51.9102,19.7996 51.0982,19.6476 50.3582,19.3426 C49.6162,19.0376 48.9762,18.6206 48.4382,18.0926 C47.8992,17.5656 47.4812,16.9476 47.1812,16.2416 C46.8812,15.5356 46.7312,14.7816 46.7312,13.9796 C46.7312,13.1366 46.8812,12.3446 47.1812,11.6036 C47.4812,10.8616 47.8992,10.2146 48.4382,9.6606 C48.9762,9.1076 49.6162,8.6706 50.3582,8.3506 C51.0982,8.0306 51.9102,7.8706 52.7952,7.8706 C53.6582,7.8706 54.4602,8.0186 55.2012,8.3126 C55.9432,8.6076 56.5802,9.0086 57.1142,9.5166 C57.6472,10.0236 58.0662,10.6176 58.3702,11.2986 C58.6752,11.9796 58.8272,12.7096 58.8272,13.4916 C58.8272,14.3656 58.6752,15.1836 58.3702,15.9446 C58.0662,16.7066 57.6472,17.3746 57.1142,17.9476 C56.5802,18.5226 55.9432,18.9746 55.2012,19.3046 C54.4602,19.6336 53.6582,19.7996 52.7952,19.7996" id="Fill-13" fill="#04617D"></path>
                <path d="M61.0064,8.0993 L63.2914,8.0993 L63.2914,10.2463 C63.5854,9.9323 63.9124,9.6303 64.2744,9.3403 C64.6344,9.0513 65.0104,8.7973 65.4014,8.5783 C65.7914,8.3613 66.1834,8.1883 66.5744,8.0613 C66.9654,7.9343 67.3334,7.8703 67.6784,7.8703 C68.0144,7.8703 68.3564,7.9313 68.7074,8.0533 C69.0574,8.1753 69.3794,8.3423 69.6744,8.5563 C69.9694,8.7693 70.2204,9.0263 70.4284,9.3263 C70.6374,9.6243 70.7764,9.9483 70.8484,10.2923 C71.0394,9.9573 71.3014,9.6433 71.6314,9.3483 C71.9614,9.0533 72.3274,8.7973 72.7294,8.5783 C73.1294,8.3613 73.5574,8.1883 74.0084,8.0613 C74.4604,7.9343 74.9044,7.8703 75.3424,7.8703 C75.7684,7.8703 76.1724,7.9643 76.5534,8.1523 C76.9344,8.3403 77.2664,8.5993 77.5514,8.9293 C77.8344,9.2593 78.0584,9.6433 78.2214,10.0793 C78.3834,10.5163 78.4654,10.9783 78.4654,11.4653 L78.4654,19.5553 L76.1944,19.5553 L76.1944,11.7863 C76.1944,11.4713 76.1394,11.1683 76.0274,10.8793 C75.9144,10.5893 75.7664,10.3363 75.5774,10.1183 C75.3894,9.8993 75.1714,9.7273 74.9224,9.5993 C74.6744,9.4723 74.4124,9.4093 74.1384,9.4093 C73.8334,9.4093 73.5184,9.4533 73.1944,9.5383 C72.8674,9.6243 72.5594,9.7423 72.2644,9.8893 C71.9694,10.0363 71.7034,10.2083 71.4644,10.4073 C71.2254,10.6053 71.0354,10.8163 70.8934,11.0393 L70.8934,19.5553 L68.6234,19.5553 L68.6234,11.7863 C68.6234,11.4713 68.5674,11.1683 68.4554,10.8793 C68.3444,10.5893 68.1944,10.3363 68.0064,10.1183 C67.8194,9.8993 67.5974,9.7273 67.3444,9.5993 C67.0894,9.4723 66.8254,9.4093 66.5514,9.4093 C66.2564,9.4093 65.9544,9.4533 65.6454,9.5383 C65.3344,9.6243 65.0324,9.7453 64.7384,9.8973 C64.4444,10.0493 64.1694,10.2243 63.9164,10.4223 C63.6614,10.6203 63.4534,10.8263 63.2914,11.0393 L63.2914,19.5553 L61.0064,19.5553 L61.0064,8.0993 Z" id="Fill-15" fill="#04617D"></path>
                <path d="M89.1744,11.7399 C89.1744,11.2939 89.0904,10.8849 88.9224,10.5129 C88.7554,10.1429 88.5364,9.8259 88.2684,9.5609 C87.9984,9.2979 87.6944,9.0919 87.3544,8.9449 C87.0134,8.7979 86.6704,8.7229 86.3244,8.7229 C85.8674,8.7229 85.4424,8.8359 85.0454,9.0589 C84.6494,9.2819 84.3044,9.5969 84.0104,10.0039 C83.7154,10.4099 83.4854,10.8939 83.3174,11.4589 C83.1494,12.0219 83.0654,12.6439 83.0654,13.3249 C83.0654,14.0549 83.1584,14.7389 83.3474,15.3739 C83.5344,16.0089 83.7914,16.5619 84.1154,17.0339 C84.4424,17.5069 84.8224,17.8799 85.2584,18.1539 C85.6954,18.4279 86.1624,18.5649 86.6604,18.5649 C87.1484,18.5649 87.6174,18.4489 88.0704,18.2149 C88.5224,17.9809 88.8894,17.7069 89.1744,17.3919 L89.1744,11.7399 Z M89.1744,18.4429 C88.9104,18.6569 88.6254,18.8469 88.3204,19.0139 C88.0164,19.1819 87.6984,19.3249 87.3694,19.4409 C87.0384,19.5569 86.7034,19.6469 86.3634,19.7079 C86.0234,19.7679 85.6954,19.7999 85.3814,19.7999 C84.7104,19.7999 84.0804,19.6439 83.4914,19.3349 C82.9034,19.0249 82.3894,18.6029 81.9534,18.0699 C81.5164,17.5369 81.1704,16.9179 80.9164,16.2119 C80.6624,15.5059 80.5354,14.7609 80.5354,13.9789 C80.5354,13.2079 80.6944,12.4539 81.0084,11.7179 C81.3224,10.9809 81.7544,10.3289 82.3034,9.7599 C82.8524,9.1909 83.4914,8.7339 84.2234,8.3879 C84.9534,8.0439 85.7314,7.8709 86.5534,7.8709 C87.1114,7.8709 87.6004,7.9679 88.0164,8.1599 C88.4324,8.3529 88.8194,8.6119 89.1744,8.9369 L89.1744,2.8889 L90.7744,2.2339 L91.4444,2.2339 L91.4444,19.7999 L89.1744,19.7999 L89.1744,18.4429 Z" id="Fill-17" fill="#04617D"></path>
                <path d="M100.2496,12.8825 C99.7626,13.0345 99.2486,13.2255 98.7116,13.4535 C98.1726,13.6825 97.6806,13.9445 97.2326,14.2385 C96.7856,14.5325 96.4156,14.8555 96.1216,15.2055 C95.8266,15.5565 95.6796,15.9355 95.6796,16.3405 C95.6796,16.6255 95.7296,16.8925 95.8316,17.1405 C95.9336,17.3895 96.0706,17.6085 96.2426,17.7955 C96.4156,17.9845 96.6136,18.1335 96.8366,18.2445 C97.0616,18.3575 97.2936,18.4125 97.5376,18.4125 C98.0456,18.4125 98.5126,18.2885 98.9396,18.0395 C99.3656,17.7905 99.8036,17.4985 100.2496,17.1635 L100.2496,12.8825 Z M102.5346,19.5555 L100.2496,19.5555 L100.2496,17.9865 C99.9846,18.1895 99.7246,18.4005 99.4656,18.6185 C99.2056,18.8365 98.9246,19.0315 98.6196,19.2045 C98.3146,19.3775 97.9786,19.5205 97.6136,19.6315 C97.2486,19.7425 96.8216,19.7995 96.3346,19.7995 C95.8876,19.7995 95.4826,19.7255 95.1236,19.5775 C94.7626,19.4315 94.4556,19.2305 94.2016,18.9765 C93.9476,18.7225 93.7526,18.4225 93.6156,18.0775 C93.4786,17.7325 93.4086,17.3565 93.4086,16.9495 C93.4086,16.4525 93.5086,16.0085 93.7066,15.6165 C93.9046,15.2265 94.1706,14.8735 94.5066,14.5585 C94.8416,14.2435 95.2326,13.9665 95.6796,13.7285 C96.1256,13.4895 96.6036,13.2745 97.1116,13.0805 C97.6196,12.8885 98.1426,12.7175 98.6806,12.5705 C99.2196,12.4235 99.7416,12.2835 100.2496,12.1515 L100.2496,11.4355 C100.2496,10.9075 100.1986,10.4655 100.0976,10.1105 C99.9956,9.7545 99.8486,9.4675 99.6546,9.2495 C99.4626,9.0305 99.2286,8.8735 98.9546,8.7775 C98.6806,8.6805 98.3756,8.6325 98.0406,8.6325 C97.6546,8.6325 97.3406,8.6835 97.0966,8.7845 C96.8526,8.8865 96.6626,9.0185 96.5246,9.1805 C96.3876,9.3435 96.2936,9.5285 96.2426,9.7365 C96.1916,9.9445 96.1666,10.1555 96.1666,10.3685 C96.1666,10.5715 96.1506,10.7655 96.1216,10.9475 C96.0906,11.1305 96.0316,11.2905 95.9456,11.4275 C95.8596,11.5655 95.7426,11.6765 95.5966,11.7635 C95.4476,11.8495 95.2626,11.8925 95.0396,11.8925 C94.6846,11.8925 94.3966,11.7655 94.1786,11.5115 C93.9596,11.2575 93.8516,10.9385 93.8516,10.5515 C93.8516,10.1765 93.9756,9.8225 94.2256,9.4925 C94.4736,9.1625 94.8086,8.8785 95.2296,8.6405 C95.6506,8.4015 96.1416,8.2135 96.6996,8.0755 C97.2586,7.9395 97.8486,7.8705 98.4676,7.8705 C99.2196,7.8705 99.8536,7.9425 100.3716,8.0835 C100.8896,8.2265 101.3096,8.4325 101.6286,8.7005 C101.9476,8.9705 102.1796,9.2895 102.3206,9.6605 C102.4636,10.0315 102.5346,10.4445 102.5346,10.9025 L102.5346,19.5555 Z" id="Fill-19" fill="#04617D"></path>
                <path d="M111.6763,18.0924 C111.3713,18.6204 110.9643,19.0374 110.4573,19.3424 C109.9483,19.6474 109.3293,19.7994 108.5983,19.7994 C107.8263,19.7994 107.2603,19.5534 106.8993,19.0604 C106.5393,18.5684 106.3593,17.9254 106.3593,17.1334 L106.3593,9.0594 L104.3643,9.0594 L104.3643,8.4944 C105.0023,8.4944 105.5303,8.3804 105.9473,8.1524 C106.3643,7.9234 106.7033,7.6124 106.9683,7.2154 C107.2323,6.8194 107.4383,6.3604 107.5843,5.8364 C107.7333,5.3144 107.8623,4.7624 107.9733,4.1844 L108.6293,4.1844 L108.6293,8.0994 L111.1883,8.0994 L111.1883,9.0594 L108.6293,9.0594 L108.6293,17.1334 C108.6293,17.4784 108.7443,17.7704 108.9793,18.0094 C109.2123,18.2474 109.5063,18.3664 109.8633,18.3664 C110.1153,18.3664 110.3483,18.3034 110.5553,18.1764 C110.7643,18.0494 110.9493,17.8954 111.1123,17.7114 L111.6763,18.0924 Z" id="Fill-21" fill="#04617D"></path>
                <path d="M119.2017,12.8825 C118.7137,13.0345 118.2007,13.2255 117.6627,13.4535 C117.1237,13.6825 116.6317,13.9445 116.1847,14.2385 C115.7377,14.5325 115.3677,14.8555 115.0727,15.2055 C114.7777,15.5565 114.6317,15.9355 114.6317,16.3405 C114.6317,16.6255 114.6817,16.8925 114.7837,17.1405 C114.8857,17.3895 115.0217,17.6085 115.1947,17.7955 C115.3677,17.9845 115.5647,18.1335 115.7887,18.2445 C116.0127,18.3575 116.2457,18.4125 116.4897,18.4125 C116.9967,18.4125 117.4647,18.2885 117.8907,18.0395 C118.3177,17.7905 118.7547,17.4985 119.2017,17.1635 L119.2017,12.8825 Z M121.4867,19.5555 L119.2017,19.5555 L119.2017,17.9865 C118.9367,18.1895 118.6767,18.4005 118.4167,18.6185 C118.1577,18.8365 117.8757,19.0315 117.5707,19.2045 C117.2657,19.3775 116.9307,19.5205 116.5657,19.6315 C116.1997,19.7425 115.7737,19.7995 115.2857,19.7995 C114.8387,19.7995 114.4347,19.7255 114.0747,19.5775 C113.7147,19.4315 113.4067,19.2305 113.1527,18.9765 C112.8987,18.7225 112.7037,18.4225 112.5667,18.0775 C112.4307,17.7325 112.3607,17.3565 112.3607,16.9495 C112.3607,16.4525 112.4597,16.0085 112.6587,15.6165 C112.8557,15.2265 113.1227,14.8735 113.4577,14.5585 C113.7937,14.2435 114.1837,13.9665 114.6317,13.7285 C115.0777,13.4895 115.5557,13.2745 116.0627,13.0805 C116.5707,12.8885 117.0947,12.7175 117.6327,12.5705 C118.1707,12.4235 118.6937,12.2835 119.2017,12.1515 L119.2017,11.4355 C119.2017,10.9075 119.1507,10.4655 119.0497,10.1105 C118.9477,9.7545 118.7997,9.4675 118.6067,9.2495 C118.4147,9.0305 118.1807,8.8735 117.9067,8.7775 C117.6327,8.6805 117.3277,8.6325 116.9927,8.6325 C116.6057,8.6325 116.2917,8.6835 116.0477,8.7845 C115.8047,8.8865 115.6137,9.0185 115.4767,9.1805 C115.3397,9.3435 115.2447,9.5285 115.1947,9.7365 C115.1427,9.9445 115.1187,10.1555 115.1187,10.3685 C115.1187,10.5715 115.1027,10.7655 115.0727,10.9475 C115.0427,11.1305 114.9837,11.2905 114.8967,11.4275 C114.8107,11.5655 114.6937,11.6765 114.5477,11.7635 C114.3997,11.8495 114.2147,11.8925 113.9907,11.8925 C113.6357,11.8925 113.3477,11.7655 113.1307,11.5115 C112.9117,11.2575 112.8037,10.9385 112.8037,10.5515 C112.8037,10.1765 112.9277,9.8225 113.1767,9.4925 C113.4247,9.1625 113.7607,8.8785 114.1817,8.6405 C114.6027,8.4015 115.0927,8.2135 115.6517,8.0755 C116.2097,7.9395 116.7997,7.8705 117.4187,7.8705 C118.1707,7.8705 118.8057,7.9425 119.3227,8.0835 C119.8417,8.2265 120.2607,8.4325 120.5807,8.7005 C120.8997,8.9705 121.1317,9.2895 121.2727,9.6605 C121.4147,10.0315 121.4867,10.4445 121.4867,10.9025 L121.4867,19.5555 Z" id="Fill-23" fill="#04617D"></path>
                <mask id="mask-6" fill="white">
                    <use xlink:href="#path-5"></use>
                </mask>
                <g id="Clip-26"></g>
            </g>
        </g>
    </g>
</svg>