<?xml version="1.0" encoding="utf-8"?>
<!-- Generator: Adobe Illustrator 21.0.2, SVG Export Plug-In . SVG Version: 6.00 Build 0)  -->
<svg version="1.1" id="Layer_1" xmlns="http://www.w3.org/2000/svg" xmlns:xlink="http://www.w3.org/1999/xlink" x="0px" y="0px"
	 viewBox="0 0 531.4 127.3" style="enable-background:new 0 0 531.4 127.3;" xml:space="preserve">
<style type="text/css">
	.st0{fill:#FF0064;}
	.st1{fill-rule:evenodd;clip-rule:evenodd;fill:#FF0064;}
</style>
<g>
	<path class="st0" d="M487.1,53.5c6.8,0,8.9,14.8,12.1,28.3c2.2,9.1,4.4,18,7.9,25.4c5,10.6,12.2,15,21.3,15v-16.7
		c-6.1,0-10.1-15.3-13-27.5c-2.1-8.9-4.3-17.6-7.7-24.8c-4.8-10.3-11-15.6-20.6-15.6c-7,0-14.7,2.7-20.5,15.5
		c-3.3,7.2-5.2,16.3-7.1,25.1c-3,13.9-4.6,29.1-11.3,29.1c-6.7,0-8.3-15.1-11.3-29.1c-1.9-8.8-3.8-17.9-7.1-25.1
		c-5.8-12.8-13.6-15.5-20.5-15.5c-9.7,0-15.8,5.2-20.6,15.6c-3.4,7.3-5.6,15.9-7.7,24.8c-2.9,12.3-6.9,27.5-13,27.5v16.7
		c9.1,0,16.3-4.5,21.3-15c3.5-7.5,5.8-16.3,7.9-25.4c3.2-13.6,5.3-28.3,12.1-28.3c6.7,0,8.3,13.6,11.3,27.6
		c1.9,8.8,3.8,19.6,7.1,26.8c5.8,12.8,12.8,15.5,20.5,15.5c7.7,0,14.7-2.7,20.5-15.5c3.3-7.2,5.2-18,7.1-26.8
		C478.8,67.2,480.4,53.5,487.1,53.5z"/>
	<path class="st1" d="M46.4,109.1c7.2,0,13.4-2.6,18.8-7.8c5.4-5.2,8.1-12,8.1-20.3c0-8.3-2.7-15-8.1-20.2
		c-5.4-5.2-11.7-7.8-18.8-7.8c-7.6,0-13.9,2.6-19,7.8c-5.1,5.2-7.6,12-7.6,20.3c0,8.5,2.5,15.3,7.6,20.4
		C32.5,106.5,38.8,109.1,46.4,109.1z M90.7,3v119.3H73.4v-9.6c-7.7,7.7-17.6,11.6-29.7,11.6c-11,0-20.5-4.1-28.6-12.2
		C7,103.9,3,93.6,3,81C3,68.5,7,58.1,15,49.9c8-8.2,17.6-12.2,28.6-12.2c12.2,0,22.1,3.9,29.7,11.7V3H90.7z"/>
	<g>
		<path class="st1" d="M161.9,39.1c-14.3,0-24.2,5.1-29.8,14v-1V39.9h-17.2v82.5h17.2V90.5c0-22.2,9.4-34.3,29.6-34.3
			c0.8,0,1.7,0,2.6,0v-17C163.6,39.1,162.8,39.1,161.9,39.1z"/>
	</g>
	<path class="st1" d="M216.6,37.7c22,0,40.2,16.9,41.1,41.5v6h-66.5c1.7,15.2,12.7,24.3,24.8,24.3c8.8,0,17.7-2.5,23.5-13l0,0h0
		l16.5,0c-0.5,1.8-1.8,5.4-3.2,7.7l0,0c-7.5,13.5-20.8,20.2-36.9,20.2c-22.3,0-41.9-17.2-41.9-43.2
		C174.1,55.1,193.5,37.7,216.6,37.7z M192,71.5h47.7c-3-12.4-12.2-18.6-23-18.6C206.3,52.9,195.2,59.2,192,71.5z"/>
	<path class="st1" d="M315,37.7c22,0,40.2,16.9,41.1,41.5v6h-66.5c1.7,15.2,12.7,24.3,24.8,24.3c8.8,0,17.7-2.5,23.5-13l0,0h0
		l16.5,0c-0.5,1.8-1.8,5.4-3.2,7.7l0,0c-7.5,13.5-20.8,20.2-36.9,20.2c-22.3,0-41.9-17.2-41.9-43.2C272.5,55.1,291.9,37.7,315,37.7z
		 M290.4,71.5h47.7c-3-12.4-12.2-18.6-23-18.6C304.7,52.9,293.6,59.2,290.4,71.5z"/>
</g>
</svg>
