<svg xmlns="http://www.w3.org/2000/svg" xmlns:xlink="http://www.w3.org/1999/xlink" viewBox="0 0 107 86">
  <g opacity=".98">
    <defs>
      <path id="a" opacity=".98" d="M6.912 4h94.51v77H6.912z"/>
    </defs>
    <clipPath id="b">
      <use xlink:href="#a" overflow="visible"/>
    </clipPath>
    <path clip-path="url(#b)" fill="#C62F2A" d="M24.875 72.296l.008-6.5c4.076 0 5.57-.202 6.282 4.794h.43v-5.565l-11.098.01v.763h1.92v14.305H20.3v.756h11.438v-5.85h-.573c-.573 4.42-1.69 5.09-4.836 5.09h-1.46v-6.95h.84c1.41.03 2.21.85 2.5 3.28h.52l-.01-7.19c-.01.01-.51 0-.51 0 0 .03-.1 3.09-2.57 3.04h-.78zm-4.537.286h-6.26v.713h2.145v5.14c-.362 1.31-2.288 1.853-2.86 1.853-4.003 0-3.715-5.852-3.715-7.415 0-1.432-.143-7.42 3.714-7.42 2.718 0 4.146 2.705 4.72 5.133h.433c0-1 .013-5.762.004-5.752 0-.035-1.87 1.346-1.87 1.324.04-.01-.86-1.28-3.29-1.28-4.72 0-6.45 4.71-6.44 7.995C6.94 75.877 8.33 81 13.36 81c1.58 0 2.693-.803 3.29-1.72.004-.017 1.993 1.567 2 1.577v-7.562h1.686v-.713zM93.5 75.014c-.568 4.42-1.69 5.08-4.834 5.08h-.19V65.788h2v-.77h-6.578v.77h2V80.09h-1.585L78.47 64.596h-.862c.02-.013-4.852 14.062-4.863 14.104.012-.045-.366 1.205-1.17 1.36-.737.036-.683-.35-.683-.485v-2.71c0-.71-.055-2.33-.795-3.073-.83-.833-2.244-.894-2.214-.924 0 0 3.595-.743 3.595-4.16 0-2.392-1.665-3.58-4.446-3.686h-7.896v.77h2.02v14.304h-2.02v.76h6.477v-.76h-2.02V73.22h2.692c4.676.383-.8 7.642 5.324 7.638h3.85v-.765c-.22 0-1.63.043-1.72-.942-.06-.71.93-3.27.93-3.27h5.25c-.01-.01 1.63 4.22 1.64 4.22h-1.83v.76h14.32v-5.84h-.57zm-27.328-2.596h-2.57v-6.63h3.287c1.92.29 2 2.52 2 3.23 0 1.71-.72 3.4-2.73 3.4m8.86 2.73l2.28-6.842 2.43 6.842h-4.71zM51.34 65.79c4.08 0 5.583-.196 6.29 4.8h.434v-5.56H41.89v.76h.423c.572 0 1.928.042 2.004 1.23v9.126l-7.57-11.117h-4.12v.76h.683c.81 0 1.954.03 2.004 1.23v11.69c0 1.13-1.707 1.57-2.422 1.57h-.008v.57h5.58v-.57c-.717 0-2.436-.44-2.436-1.57l.02-10.3c2.997 4.28 8.653 12.44 8.705 12.43h.28V67.02c.08-1.188 1.434-1.23 2.005-1.23h1.858v14.315h-2.12v.752h11.44v-5.85h-.575c-.57 4.42-1.68 5.098-4.83 5.098h-1.46v-6.95h.85c1.42.034 2.22.855 2.5 3.282h.52v-7.19c-.01.02-.5 0-.5 0 0 .04-.1 3.097-2.57 3.05h-.78V65.79zm49.917 0v-.77h-6.45v.77h2.027l.007 14.294h-2.03v.773h6.46v-.773h-2.03V65.79M84.22 55.258l2-.756.028-.014c2.84-1.176 3.24-1.905 3.108-3.794v-7.626c2.157 5.48 4.2 9.336 8.383 9.336.57 0 1.17-.073 1.83-.22l1.63-.37-1.12-1.237c-.72-.794-1.07-1.406-1.47-2.114-.16-.29-.33-.595-.54-.93-.98-1.588-3.31-2.125-5.2-1.28-.86-1.698-1.72-3.914-2.76-6.65l-.23-.52-.54-1.23v-.07h-.03c-.64-1.443-1.33-2.89-2.15-4.25-.75-1.233-1.5-2.298-2.32-3.254-2.19-2.57-5.07-4.16-8.59-4.74-2.43-.41-4.15-.49-6.33-.6-.45-.02-.93-.05-1.43-.07-.99-.06-3.03-.22-5-.39-1.33-.11-2.69-.22-3.76-.3.07-.3.11-.62.11-.94 0-.44-.04-.83-.12-1.17h13.99c3.6 0 6.21-1.6 7.76-4.73 3.58-.04 6.17-1.66 7.7-4.83h.5c3.73 0 6.4-1.7 7.92-5.06l.63-1.39H50.89c-3.112 0-5.763 2.03-6.755 5.17l-.03.11c-.805-2.25-2.28-4.15-4.17-5.28-2.63-1.57-5.615-2.09-8-1.41-.785.22-1.57.58-2.21 1-.54.36-1.31.94-1.866 1.65-.6.77-1.19 1.71-1.62 2.59-.27.23-.48.45-.63.67l-.57 1.06-.03.06c-.68 1.53-1.51 2.6-2.15 3.35-.64.74-.67 1.45-.58 1.91.09.51.36.92.65 1.23l-.02.03c-.19.32-.29.7-.29 1.08 0 1.25 1.09 2.19 2.42 2.19.97 0 1.77-.46 2.61-1.01.34-.23 1.24-.83 1.54-.86.37 0 .71.34.71.71 0 1.02-1.32 1.58-2.27 1.65l-1.93.2c-1.39.13-2.05.86-2.05 1.52s.31 1.03.53 1.25l.14.14.49.44-2.04 3.28c-1.46-1.35-3.16-2.16-4.67-2.21-.98-.04-1.82.26-2.44.85-.18.17-.34.36-.48.58h-.03c-1.61 0-2.91.86-3.55 1.83-.69 1.06-.44 2.89.43 4.29L6.9 35.5v24.62h94.48v-4.9H84.22zm12.186-6.7c.187.305.346.59.504.865.19.34.377.668.597 1.007-1.482-.09-2.606-.912-3.646-2.466.97-.334 2.12-.096 2.55.595M75.96 27.47c3.046.5 5.542 1.87 7.415 4.07.4.474.786.974 1.165 1.516-5.125-.672-6.907-1.42-9.774-5.77.382.05.775.11 1.193.18m-2.21-7.338h-9.62c.82-.726 1.51-1.653 2.07-2.775h13.07c-1.23 1.884-3.01 2.774-5.52 2.774M81.4 15.4h-9.616c.85-.746 1.56-1.707 2.123-2.877h13.08C85.762 14.48 83.957 15.4 81.4 15.4m.653-7.366H95.08c-1.223 1.722-2.96 2.535-5.363 2.535h-9.615c.763-.68 1.417-1.52 1.95-2.54m-52.645.5c.31-.4.805-.83 1.407-1.22.464-.32 1.076-.59 1.67-.76.943-.27 2.03-.29 3.153-.08L32.18 8.61c-.43-.044-.858-.065-1.26-.065-.59 0-1.13.047-1.62.13.032-.05.07-.1.1-.14M25.37 23.8c.03-.137.14-.243.256-.24l1.68.053c2.056-.07 4.146-.915 4.38-3.053 0-1.448-1.026-2.854-2.48-2.854-.77 0-1.645.537-2.625 1.186-.63.42-1.14.756-1.52.756-.26 0-.46-.174-.46-.315 0-.023 0-.05.02-.07l1.08-1.44-.93-.626c-.19-.127-.5-.373-.54-.555-.01-.086.11-.24.15-.288.39-.447.83-.994 1.28-1.67.28-.385.44-.596.9-.596s.83.365.83.812c0 .295.32.528.73.528.4 0 .58-.284.83-.528 0 0 .96-.88.45-1.295-.58-.474-2.9.493-2.25-1.64l.16-.303c.25-.33 1.36-1.153 3.66-1.153.43 0 .89.03 1.37.09l.34.04 4.87-3.01c.04.1.06.17.06.17v.03c.25 1.47-.67 3.23-2.16 4.08l-.6.34.39 2.2c-1.25.38-2.12 1.38-2.12 2.59 0 .41.09.9.22 1.52.14.69.29 1.47.33 2.27 0 2.28-3.15 3.79-5.82 3.71l-.07-.01c-.11 0-1.81-.14-2.23-.47-.08-.07-.14-.2-.12-.3m-12.08 7.2c.39-.59 1.27-1.1 2.37-.91l.83.15.26-.81c.08-.22.17-.38.3-.5.24-.22.59-.32 1.03-.31 1.18.04 2.65.86 3.85 2.15.44.46.83 1.01 1.17 1.56.07.11.15.23.21.34.1.15.18.28.2.31.05.08.64.96.6 1.02.41-.57.81-1.14 1.22-1.71.01-.01 0-.06-.04-.14-.09-.19-.3-.53-.43-.73l-.09-.15v-.01l-.13-.21c-.13-.21-.33-.52-.41-.69l2.55-4.08c.64.13 1.18.15 1.44.15h.07c3.6 0 7.32-2.08 7.32-5.55v-.09c-.05-.95-.22-1.85-.37-2.58-.09-.48-.18-.93-.18-1.15 0-.39.53-.81 1.3-.81h1.16l-.53-3.01c1.64-1.21 2.64-3.17 2.59-5.05 1.77 1.35 3.01 3.7 3.24 6.2.07.72-.08 1.74-.31 2.8l-.12.44h.02c-.42 1.74-1.03 3.53-1.36 4.38l-.3.78.73.41c1.31.74 2.12 1.28 2.12 3.01 0 1.986-1.79 3.5-3.51 3.82l-2.36.45 1.99 1.33c.64.42 1.02 1.12 1.02 1.86 0 1.24-1.05 2.25-2.36 2.25h-.75l-.21.69c-.73 2.383-1.52 3.55-4.08 3.8.12-.72.2-1.42.2-2.41 0-.23-.02-.88-.03-1.084l-.11-2.224-1.57 1.59c-.53.54-1.47.962-2.5 1.164V35.5L18.2 32.6l-3.974 1.03c-.89-.89-1.07-2.356-.846-2.696m-3.248 24.3l8.04-2.094 8.03 2.095H10.1zm17.26-1.715l-9.22-2.4-9.22 2.39V37.05l9.22-2.393 9.22 2.394v16.5zm4.29-3.21c-.837 1.2-.937 2.85-.31 4.92H29.3v-15.8c.724-.11 1.505-.31 2.23-.65-.044.69-.134 1.24-.265 1.97-.028.17-.06.35-.09.54l-.196 1.14h1.16c1.73 0 3.02-.27 4.01-.78v6.59c0 .17-.13.31-.29.31h-.3c-1.73 0-3.16.64-3.94 1.77m21.24.42c-.71.81-1.4 2.22-.95 4.5H39.95c1.288-.13 2.22-.43 2.865-1.1.784-.82.853-1.94.827-2.73.026-.08.157-.35.743-.61l1.033-.48-.62-.95c-1.022-1.58-.576-5.01-.18-6.88h.092c4.06 0 6.686-.84 9.455-1.73.723-.23 1.47-.47 2.255-.7h.023c.018-.01.828-.27 1.93-.52L62.276 46l.036.052c.39.556.438.92-.27 1.745l-1.96 2.108-3.205-.594h-.027c-1.45-.22-3.01.35-3.975 1.45m1.053 4.5c-.354-1.38-.208-2.49.423-3.21.61-.69 1.53-.9 2.19-.81l3.72.69.1.02h.52l2.63-2.83.03-.02c.45-.52 1.81-2.11.42-4.12l-3.51-5.78c.58-.08 1.17-.13 1.71-.13h.03c.02 0 1.78-.02 3.67 1.08.26.55.61 1.27 1.01 2.07.74 1.5 1.66 3.36 1.91 4.11.08.24.33.96-.55 1.87l-6.73 7.1h-7.53zm22.94 0H64.15l5.45-5.76c1.1-1.13 1.452-2.5.99-3.84-.268-.77-.988-2.26-1.734-3.78 2.164 1.01 5.44 1.91 12.118 2.45.806.07 1.017.34 1.177 1.08l.3 2.88-3.49.78c-1.17.24-2.08 1-2.52 2.12-.47 1.23-.31 2.68.44 4.1m1.39-3.39c.19-.49.57-.8 1.08-.9l5.23-1.16-.47-4.66-.01-.1c-.13-.6-.52-2.46-2.94-2.66-9.33-.75-11.5-2.14-13.77-3.6v-.02l-.01.01-.15-.09c-2.42-1.57-4.83-1.58-5.06-1.57-2.64 0-5.99 1.05-6.26 1.14-.81.24-1.56.48-2.29.71-2.92.94-5.45 1.76-9.69 1.63l-.77-.02-.2.75c-.15.58-1.34 5.26-.19 8.28-1.02.81-1.02 1.75-1.02 1.87.04 1.03-.2 1.29-.28 1.37-.49.51-2.12.58-3.49.58h-.52l-.29.41c-.85 1.16-2.67 1.44-3.84 1.14-.51-1.56-.52-2.76-.03-3.47.59-.84 1.83-.93 2.33-.93h.3c1.24 0 2.25-1.02 2.25-2.26v-8.4c.38-.58.68-1.26.95-2.01 2.05-.33 3.62-2.07 3.62-4.16 0-.8-.24-1.58-.66-2.24 1.89-.91 3.51-2.77 3.51-5.21s-1.23-3.56-2.4-4.3c.33-.93.88-2.58 1.24-4.24l1.64-5.87c.73-2.3 2.65-3.79 4.89-3.79h28.88c-1.22 1.72-2.96 2.53-5.36 2.53h-17.5l-.91 1.96H71.7c-1.233 1.96-3.033 2.88-5.59 2.88H54.74l-.914 1.96h10.13c-1.22 1.88-3 2.77-5.51 2.77h-6.19l-.91 1.957h6.49c.06.08.22.38.22 1.17 0 1.25-1.05 2.28-2.35 2.28-.44 0-.82-.104-1.49-.374-.284-.124-.572-.245-.86-.364l-1.5 1.35.84.36c1.3.57 2.03.86 3.017.86 1.197 0 2.275-.49 3.037-1.28 1.113.07 2.906.22 4.645.36 2.075.17 4.034.336 5.05.39.51.03.982.05 1.44.07.86.05 1.65.09 2.434.14 3.94 6.4 5.96 7.24 13.59 8.16.55.99 1.04 2.03 1.51 3.08V50.9c.04.58.04.77-.04.87-.27.35-1.45.84-1.86 1.01l-6.43 2.43c-.86-1.16-1.16-2.36-.82-3.236"/>
    <path clip-path="url(#b)" fill="#C62F2A" d="M25.296 39.584l-6.16-1.6v2.02l6.16 1.6m-14.354 0l6.162-1.6v-2.02l-6.162 1.6m0 6.08l6.162-1.6v-2.02l-6.162 1.597m14.354 0l-6.16-1.59v2.02l6.16 1.6m0 2.04l-6.16-1.6v2.02l6.16 1.61m-14.354 0l6.162-1.6v-2.02l-6.162 1.6"/>
  </g>
</svg>