<?xml version="1.0" encoding="windows-1252"?>
<!-- Generator: Adobe Illustrator 19.0.0, SVG Export Plug-In . SVG Version: 6.00 Build 0)  -->
<svg version="1.1" id="Layer_1" xmlns="http://www.w3.org/2000/svg" xmlns:xlink="http://www.w3.org/1999/xlink" x="0px" y="0px" viewBox="0 0 512 512" style="enable-background:new 0 0 512 512;" xml:space="preserve">
<polygon style="fill:#EDEDEE;" points="332.482,408.296 179.852,408.296 200.39,152.297 311.608,152.297 "/>
<polygon style="fill:#B9B7BD;" points="176.177,471.92 179.852,408.296 332.482,408.296 336.49,471.92 "/>
<path style="fill:#736F7B;" d="M256.501,15.53c-13.281,0-24.047,10.766-24.047,24.047h48.094  C280.548,26.296,269.782,15.53,256.501,15.53z"/>
<rect x="232.453" y="40.078" style="fill:#A0D2F0;" width="48.094" height="47.593"/>
<polygon style="fill:#B2A49B;" points="280.047,112.051 231.953,111.885 231.953,87.671 280.548,87.671 "/>
<path style="fill:#A7A5AC;" d="M377.236,504.984H136.099l5.347-22.354c2.942-7.205,8.652-10.712,15.36-10.712  c15.197,0,181.652,0,199.055,0c7.312,0,12.914,5.557,15.525,12.608L377.236,504.984z"/>
<polygon style="fill:#B2A49B;" points="183.859,111.718 200.39,152.297 311.608,152.297 328.141,112.219 "/>
<polygon style="fill:#FF6464;" points="322.145,280.046 311.608,152.297 200.39,152.297 190.076,280.046 "/>
<polygon style="fill:#D2555A;" points="313.632,176.83 311.608,152.297 200.39,152.297 198.431,176.554 "/>
<path d="M392.266,496.969h-10.164l-3.557-14.227c-2.626-10.501-12.019-17.836-22.843-17.836h-12.574l-3.737-49.835  c2.529-1.209,4.28-3.784,4.28-6.775c0-3.389-2.244-6.252-5.327-7.189L319.733,152.97l13.495-33.738h2.928  c4.15,0,7.515-3.365,7.515-7.515c0-4.15-3.365-7.515-7.515-7.515h-0.501V79.655c0-4.15-3.365-7.515-7.515-7.515  s-7.515,3.365-7.515,7.515v0.501h-9.018v-0.501c0-4.15-3.365-7.515-7.515-7.515s-7.515,3.365-7.515,7.515v0.501h-9.018V47.092h0.501  c4.15,0,7.515-3.365,7.515-7.515s-3.365-7.515-7.515-7.515h-1.412c-2.79-11.376-11.76-20.346-23.136-23.136V7.515  C263.515,3.365,260.15,0,256,0c-4.15,0-7.515,3.365-7.515,7.515v1.412c-11.376,2.79-20.346,11.76-23.136,23.136h-1.412  c-4.15,0-7.515,3.365-7.515,7.515s3.365,7.515,7.515,7.515h0.501v33.064h-9.018v-0.501c0-4.15-3.365-7.515-7.515-7.515  c-4.15,0-7.515,3.365-7.515,7.515v0.501h-9.018v-0.501c0-4.15-3.365-7.515-7.515-7.515s-7.515,3.365-7.515,7.515v24.548h-0.501  c-4.15,0-7.515,3.365-7.515,7.515c0,4.15,3.365,7.515,7.515,7.515h2.928l13.495,33.738l-18.61,248.138  c-3.083,0.937-5.327,3.8-5.327,7.189c0,2.991,1.751,5.565,4.28,6.775l-3.738,49.834h-12.574c-10.824,0-20.217,7.334-22.843,17.836  l-3.557,14.227h-10.164c-4.15,0-7.515,3.365-7.515,7.515s3.365,7.515,7.515,7.515h256.47c0.008,0,0.016,0.002,0.024,0.002  c0.011,0,0.022-0.002,0.033-0.002h16.004c4.15,0,7.515-3.365,7.515-7.515S396.416,496.969,392.266,496.969z M197.243,287.561  h117.512l8.492,113.221H188.753L197.243,287.561z M307.021,144.281h-4.09l6.888-25.049h7.221L307.021,144.281z M287.345,144.281  h-4.321l3.549-25.049h7.662L287.345,144.281z M263.515,144.281v-25.049h7.878l-3.549,25.049H263.515z M244.156,144.281  l-3.548-25.049h7.878v25.049H244.156z M263.515,104.203v-9.018h9.018v9.018H263.515z M248.485,104.203h-9.018v-9.018h9.018V104.203z   M225.428,119.232l3.549,25.049h-3.6l-7.41-25.049H225.428z M202.292,119.232l7.41,25.049h-4.725l-10.02-25.049H202.292z   M206.863,159.311h12.872c0.008,0,0.017,0.002,0.025,0.002c0.009,0,0.019-0.002,0.028-0.002H237.6c0.007,0,0.014,0.001,0.021,0.001  c0.005,0,0.009-0.001,0.014-0.001h36.73c0.005,0,0.009,0.001,0.014,0.001c0.007,0,0.014-0.001,0.021-0.001h18.646  c0.01,0,0.02,0.002,0.03,0.002c0.008,0,0.016-0.002,0.024-0.002h12.036l8.492,113.221H198.371L206.863,159.311z M320.626,95.186  v9.018h-9.018v-9.018H320.626z M296.579,95.186v9.018h-9.018v-9.018H296.579z M256,23.045c6.408,0,11.965,3.673,14.707,9.018  h-29.414C244.035,26.718,249.592,23.045,256,23.045z M239.468,47.092h33.064v33.064h-9.018v-0.501c0-4.15-3.365-7.515-7.515-7.515  c-4.15,0-7.515,3.365-7.515,7.515v0.501h-9.018V47.092z M224.438,95.186v9.018h-9.018v-9.018H224.438z M200.392,95.186v9.018h-9.018  v-9.018H200.392z M187.626,415.81h136.75l3.682,49.096H183.944L187.626,415.81z M148.036,486.387  c0.95-3.798,4.347-6.452,8.262-6.452h19.546h160.312h19.546c3.915,0,7.312,2.652,8.262,6.452l2.645,10.582H145.39L148.036,486.387z"/>
<g>
</g>
<g>
</g>
<g>
</g>
<g>
</g>
<g>
</g>
<g>
</g>
<g>
</g>
<g>
</g>
<g>
</g>
<g>
</g>
<g>
</g>
<g>
</g>
<g>
</g>
<g>
</g>
<g>
</g>
</svg>