<svg xmlns="http://www.w3.org/2000/svg" viewBox="0 0 469.32 82.59"><defs><style>.cls-1{fill:#292f3c;}</style></defs><title>Fichier 1</title><g id="Calque_2" data-name="Calque 2"><g id="Layer_1" data-name="Layer 1"><path class="cls-1" d="M147.14,82.59a53.39,53.39,0,0,1-18.51-3.26A54.54,54.54,0,0,1,110,82.59c-13.7,0-30-5.75-30-33.11v-45A4.51,4.51,0,0,1,84.45,0H91a4.51,4.51,0,0,1,4.51,4.51v45c0,15.93,6.22,19.19,15.55,19.19a41.67,41.67,0,0,0,9.52-1.46V4.51A4.51,4.51,0,0,1,125.12,0H132a4.51,4.51,0,0,1,4.51,4.51V67.2A41.67,41.67,0,0,0,146,68.67c11,0,15.55-5.56,15.55-19.19v-45A4.51,4.51,0,0,1,166.07,0h6.59a4.51,4.51,0,0,1,4.51,4.51v45C177.17,76.84,160.84,82.59,147.14,82.59Z"/><path class="cls-1" d="M32.83.09C12.27.09,0,13.52,0,36V46.67C0,69.16,12.27,82.59,32.83,82.59s33-13.43,33-35.92V36C65.81,13.52,53.48.09,32.83.09ZM50.06,46.67c0,14.41-5.8,21.72-17.23,21.72S15.74,61.08,15.74,46.67V36c0-14.41,5.75-21.72,17.09-21.72S50.06,21.6,50.06,36Z"/><path class="cls-1" d="M229.36.09h-10c-7.89,0-26.24,2.63-26.24,26.94v51a4.28,4.28,0,0,0,4.23,4.51h7.29a4.28,4.28,0,0,0,4.23-4.51V27c0-10,2.35-12.88,10.5-12.88h10c8.14,0,10.5,2.89,10.5,12.88v51a4.28,4.28,0,0,0,4.23,4.51h7.29a4.28,4.28,0,0,0,4.23-4.51V27C255.6,2.72,237.25.09,229.36.09Z"/><path class="cls-1" d="M304.62.09c-19.95,0-32.83,14.26-32.83,36.34v9.82c0,32.8,24.14,36.34,34.52,36.34a119.57,119.57,0,0,0,24.43-2.41c2.86-.54,4.19-2.09,4.19-4.9V70.51A3.65,3.65,0,0,0,331,66.84h-.83l-.13,0a172.76,172.76,0,0,1-23.72,1.94c-12.45,0-18.77-7.35-18.77-21.84H332.8c2.57,0,4.37-2,4.37-4.79V36.29C337.17,14,324.69.09,304.62.09ZM287.54,34.17c.3-12.83,6.33-19.88,17.08-19.88,11.1,0,16.42,6.32,16.66,19.88Z"/><path class="cls-1" d="M375.87,32.68c-7.67-3.11-10.78-3.51-10.78-9.53V21.91c0-8.19,8.22-8.8,14.37-8.8,5.34,0,8.91,1,10.75,2.86a9.83,9.83,0,0,1,2.55,5.27,3,3,0,0,0,3,2.56h7.71a3,3,0,0,0,3-3.07c0-2.65-.12-20.72-27-20.72-10,0-17.5,1.83-22.23,5.44S350,15.38,350,20.92v4.26c.9,13.49,6.38,14.49,31.92,24.33,7.18,2.76,11.8,3.73,11.8,10.12,0,10.09-6,9.86-15.53,9.86-5.57,0-8.92-1-10.84-2.86a10.55,10.55,0,0,1-3-5.27,3.14,3.14,0,0,0-3.11-2.56h-8.76c-1.74,0-2.44,1.38-2.44,3.07,0,2.65,1.07,20.72,28.18,20.72,22.57,0,30.73-6.18,30.73-22.52,0-4.48-.53-9.68-2.73-12.34C402.55,43.34,386.85,37.13,375.87,32.68Z"/><path class="cls-1" d="M466.43.09l-.15,0H420a3.62,3.62,0,0,0-3.81,3.57V9.8a3.53,3.53,0,0,0,2.89,3.47l.15,0h15.68V78.61a4,4,0,0,0,4,4h7.71a4,4,0,0,0,4-4V13.29h14.91a3.62,3.62,0,0,0,3.81-3.57V3.56A3.53,3.53,0,0,0,466.43.09Z"/></g></g></svg>