<svg xmlns="http://www.w3.org/2000/svg" viewBox="0 0 154 42"><path d="M76.5 12.9h-2.1L59.7 28.4V12.9h-1.6v25.5h1.6v-7.9l5.1-5.4L75 38.4h1.9l-11-14.3L76.5 12.9zM31.4 26.1h12.9v-1.5H31.4V14.4h14.7v-1.5H29.8v25.5h16.6v-1.5H31.4V26.1zM143.2 13l-0.1-0.1h-1.3l-10.8 25.5h1.7l3.6-8.7h12.1l3.6 8.7h1.8L143.2 13zM137 28.3l5.5-13.1 5.4 13.1H137zM119 38.4h1.6V12.9H119V38.4zM16 27.1c-0.8-0.5-1.7-0.9-2.8-1.3 -1.1-0.3-2.3-0.6-3.7-0.9 -1.3-0.3-2.4-0.6-3.4-0.8 -0.9-0.3-1.7-0.6-2.3-1 -0.6-0.4-1-0.8-1.3-1.4 -0.3-0.5-0.4-1.2-0.4-2 0-1.6 0.6-2.9 1.7-3.9 1.1-1 3-1.5 5.6-1.5 1.4 0 2.7 0.2 3.7 0.6 1 0.4 2 1.1 2.9 2.1l0.2 0.2 0.9-1.3L17 15.7c-1-1.1-2.1-1.8-3.3-2.3 -1.2-0.5-2.6-0.7-4.2-0.7 -1.3 0-2.5 0.2-3.6 0.5 -1.1 0.3-2 0.8-2.8 1.4 -0.8 0.6-1.4 1.3-1.8 2.2 -0.4 0.9-0.6 1.9-0.6 3 0 1.1 0.2 2 0.6 2.7 0.4 0.7 0.9 1.3 1.7 1.8 0.7 0.5 1.6 0.9 2.7 1.2 1.1 0.3 2.3 0.6 3.6 0.9 1.4 0.3 2.5 0.6 3.5 0.9 1 0.3 1.8 0.7 2.4 1.1 0.6 0.4 1.1 0.9 1.4 1.5 0.3 0.6 0.5 1.3 0.5 2.2 0 1.7-0.6 2.9-1.9 3.8 -1.3 0.8-3.1 1.3-5.3 1.3 -1.8 0-3.5-0.3-4.9-0.9 -1.4-0.6-2.7-1.5-3.9-2.7l-0.2-0.2 -1 1.2 0.1 0.1C1.2 36 2.6 37 4.2 37.6c1.6 0.6 3.4 1 5.4 1 1.3 0 2.5-0.1 3.6-0.4 1.1-0.3 2-0.7 2.8-1.2 0.8-0.6 1.4-1.3 1.8-2.1 0.4-0.8 0.6-1.8 0.6-2.9 0-1.1-0.2-2.1-0.6-2.9C17.4 28.3 16.8 27.6 16 27.1zM83.8 4h24.6c0.1 0 0.1-0.1 0.1-0.1V0.5c0-0.1-0.1-0.1-0.1-0.1H83.8c-0.1 0-0.1 0.1-0.1 0.1v3.4C83.7 4 83.7 4 83.8 4zM96.1 9.4c-8.8 0-16 7.3-16 16.3 0 9 7.2 16.3 16 16.3s16-7.3 16-16.3C112.1 16.7 104.9 9.4 96.1 9.4zM96.1 38.4c-6.9 0-12.5-5.7-12.5-12.7 0-7 5.6-12.7 12.5-12.7 6.9 0 12.5 5.7 12.5 12.7C108.6 32.7 103 38.4 96.1 38.4z"></path></svg>
