<?xml version="1.0" encoding="utf-8"?>
<!-- Generator: Adobe Illustrator 19.1.0, SVG Export Plug-In . SVG Version: 6.00 Build 0)  -->
<svg version="1.1" id="Calque_1" xmlns="http://www.w3.org/2000/svg" xmlns:xlink="http://www.w3.org/1999/xlink" x="0px" y="0px"
	 viewBox="0 0 797.7 150" style="enable-background:new 0 0 797.7 150;" xml:space="preserve">
<style type="text/css">
	.st0{fill:#14E3FF;}
	.st1{fill:#1D1D1B;}
</style>
<g>
	<g>
		<path d="M185.3,117.6c-2.1-1.9-3.7-4.4-4.8-7.6c-1.1-3.2-1.6-6.5-1.6-10.1h2.7c0,4.1,0.6,7.4,1.7,10c1.2,2.6,2.6,4.5,4.4,6
			c1.8,1.4,3.7,2.4,5.7,2.8c2.1,0.5,4,0.7,5.8,0.7c2.2,0,4.4-0.3,6.6-1c2.2-0.6,4.1-1.7,5.9-3.1c1.8-1.4,3.2-3.3,4.2-5.6
			c1.1-2.3,1.6-5.1,1.6-8.5c0-3.8-0.6-7.2-1.7-10.1c-1.1-2.9-2.6-5.4-4.4-7.6c-1.8-2.2-3.9-4.2-6.2-6c-2.3-1.8-4.7-3.5-7-5.2
			c-2.3-1.6-4.5-3.2-6.6-4.8c-2.1-1.6-4-3.4-5.7-5.3c-3.8-4.5-5.6-9.6-5.6-15.1c0-0.3,0-0.9,0-2c0-1.1,0.1-2.3,0.4-3.8
			c0.3-1.5,0.8-3,1.4-4.7c0.7-1.7,1.7-3.3,3.2-4.7c3.3-3.6,8-5.4,14-5.4c6.1,0,10.6,1.8,13.7,5.4c1.3,1.5,2.2,3.2,2.8,5.1
			c0.6,1.8,0.9,3.6,1.1,5.3c0.2,1.7,0.2,3.1,0.2,4.2c0,1.2-0.1,1.8-0.1,1.9h-2.7c0.1-2.1,0-3.8-0.1-5.4c-0.2-1.5-0.5-3.1-1-4.8
			c-0.5-1.7-1.3-3.1-2.4-4.4c-1.3-1.5-2.9-2.6-4.7-3.3c-1.9-0.8-4.1-1.2-6.8-1.2c-5.2,0-9.2,1.5-11.9,4.5c-1.2,1.3-2.1,2.7-2.7,4.2
			c-0.6,1.5-1,3-1.3,4.3c-0.3,1.3-0.4,2.9-0.4,4.8c0,2.8,0.5,5.3,1.4,7.5c0.9,2.2,2.2,4.2,3.7,6c1.5,1.8,3.3,3.5,5.3,5.1
			c2,1.5,4.1,3.1,6.2,4.6c2.5,1.7,4.9,3.5,7.3,5.4c2.4,1.9,4.6,4,6.6,6.4c4.5,5.5,6.7,11.9,6.7,19.2c0,6.9-2.3,12.3-6.9,16.1
			c-3.8,3.1-8.5,4.6-14.1,4.6c-2,0-4.2-0.3-6.7-0.8C189.9,120.7,187.5,119.4,185.3,117.6z"/>
		<path d="M256.1,30.3h-21.3v-1.2v-1.3h44.9v1.3v1.3l0.1-0.1h-21v90.6h-1.4h-1.3V30.3z"/>
		<path d="M321.4,80.6c-0.9,0.2-1.9,0.3-2.9,0.3c-1,0-2,0.1-3.1,0.1h-12v39.9h-1.4h-1.3V29.3v-1.5h1.5h13.2c4.6,0,8.5,0.7,11.6,2.2
			c3.1,1.5,5.5,3.5,7.2,6.2c1.6,2.6,2.9,5.4,3.8,8.7c0.9,3.2,1.3,6.4,1.3,9.7c0,3.3-0.4,6.6-1.3,9.8c-0.9,3.2-2.2,6-3.8,8.5
			c-1.2,1.9-2.6,3.5-4.2,4.7c-1.6,1.3-3.7,2.2-6.2,2.7L321.4,80.6z M331.9,71.3c1.5-2.3,2.6-4.9,3.5-7.9c0.9-3,1.3-6,1.3-9.1
			c0-3-0.4-6-1.3-8.9c-0.9-3-2-5.6-3.5-7.9c-1.5-2.2-3.5-4-6.3-5.2c-2.7-1.2-6.2-1.9-10.3-1.9h-12v47.9h12c5,0,8.6-0.6,10.9-1.9
			C328.5,75.2,330.4,73.5,331.9,71.3z M323.8,80.1l17.8,40.6h-2.8l-17.6-40.1L323.8,80.1z"/>
		<path d="M399.7,118.5v1.2v1.3h-36.1v-1.3V29.1v-1.4h35.6v1.4v1h-32.9v48.4H392v1.3V81h-25.8v37.4H399.7z"/>
		<path d="M459.3,120.9h-2.8l-5.8-28.1h-22.3l-6,28.1h-2.8l18.8-93.2h2.2L459.3,120.9z M449.9,90.1l-10.4-55.4l-10.8,55.4H449.9z
			 M439,27.7h0.1h0.3h0.1h0.1h0.3H439z"/>
		<path d="M480.5,34.5v86.4h-1.3h-1.4V29v-0.1v-1.2h2.2l23.7,46.4l23.7-46.4h2.1v1.2V29v91.9h-1.3h-1.3V34.4l-22.2,44.2h-1.8
			L480.5,34.5z M479.7,27.7h-0.1h-0.1h-0.1h-0.1H479h-0.1h-0.1H479.7z M527.7,27.7h0.1h0.1h0.1h0.1h0.1h0.1h0.1H527.7z"/>
		<g>
			<path d="M575.1,80.6c-0.9,0.2-1.9,0.3-2.9,0.3c-1,0-2,0.1-3.1,0.1h-12v39.9h-1.4h-1.3V29.3v-1.5h1.5h13.2c4.6,0,8.5,0.7,11.6,2.2
				c3.1,1.5,5.5,3.5,7.2,6.2c1.6,2.6,2.9,5.4,3.8,8.7c0.9,3.2,1.3,6.4,1.3,9.7c0,3.3-0.4,6.6-1.3,9.8c-0.9,3.2-2.2,6-3.8,8.5
				c-1.2,1.9-2.6,3.5-4.2,4.7c-1.6,1.3-3.7,2.2-6.2,2.7L575.1,80.6z M585.6,71.3c1.5-2.3,2.6-4.9,3.5-7.9c0.9-3,1.3-6,1.3-9.1
				c0-3-0.4-6-1.3-8.9c-0.9-3-2-5.6-3.5-7.9c-1.5-2.2-3.5-4-6.3-5.2c-2.7-1.2-6.2-1.9-10.3-1.9h-12v47.9h12c5,0,8.6-0.6,10.9-1.9
				C582.3,75.2,584.2,73.5,585.6,71.3z M577.6,80.1l17.8,40.6h-2.8L575,80.6L577.6,80.1z"/>
			<path d="M559.1,122.9h-6.7V25.7h16.7c4.9,0,9.1,0.8,12.4,2.4c3.5,1.6,6.2,3.9,8.1,6.9c1.7,2.7,3.1,5.8,4,9.2
				c0.9,3.4,1.4,6.8,1.4,10.2c0,3.5-0.5,7-1.4,10.3c-0.9,3.4-2.3,6.4-4,9.1c-1.3,2-2.9,3.8-4.7,5.2c-1.3,1-2.9,1.9-4.6,2.4
				l18.1,41.3h-7.2l-17.5-39.9c-0.5,0.1-1,0.1-1.5,0.1c-1,0-2,0.1-3.2,0.1h-10V122.9z M559.1,76.3h10c4.6,0,7.9-0.5,9.9-1.6
				c2-1.1,3.6-2.6,4.9-4.5c1.3-2.1,2.4-4.6,3.2-7.4c0.8-2.8,1.2-5.6,1.2-8.5c0-2.8-0.4-5.6-1.2-8.4c-0.8-2.8-1.9-5.2-3.2-7.4
				c-1.2-1.9-3-3.4-5.4-4.4c-2.5-1.1-5.6-1.7-9.4-1.7h-10V76.3z"/>
		</g>
		<g>
			<path d="M654.9,100.8c0,0.3,0,0.9,0,2.1c0,1.1-0.2,2.5-0.5,4c-0.3,1.6-0.9,3.3-1.6,5.1c-0.7,1.8-1.8,3.5-3.3,5
				c-1.7,1.7-4.1,3-7.2,3.9c-3.1,0.9-6.1,1.3-9,1.3c-2.9,0-5.9-0.4-9-1.3c-3.1-0.9-5.4-2.2-7-3.9c-1.5-1.5-2.5-3.2-3.3-5.1
				c-0.7-1.9-1.2-3.7-1.5-5.3c-0.3-1.7-0.4-3.1-0.4-4.3c0-1.2,0-1.9,0-2.2V47.5c0-3.4,0.5-6.5,1.5-9.2c1-2.7,2.5-5,4.7-6.9
				c0.9-0.8,1.9-1.5,3.1-2.1c1.2-0.6,2.5-1.1,3.9-1.5c1.4-0.4,2.7-0.7,4.1-0.9c1.4-0.2,2.6-0.3,3.8-0.3c1.1,0,2.4,0.1,3.8,0.3
				c1.4,0.2,2.8,0.4,4.2,0.8c1.4,0.4,2.7,0.9,4,1.4c1.2,0.6,2.3,1.2,3.1,2c4.4,3.8,6.5,9.3,6.5,16.3V100.8z M652.2,47.5
				c0-3-0.4-5.6-1.2-7.7c-0.8-2.1-1.9-3.9-3.1-5.4c-0.9-0.9-1.9-1.6-3.1-2.2c-1.2-0.6-2.5-1.2-3.8-1.6c-1.3-0.4-2.7-0.7-4-0.9
				c-1.4-0.2-2.6-0.3-3.6-0.3c-2,0-4,0.2-6.2,0.7c-2.2,0.5-4.2,1.4-6,2.7c-1.8,1.3-3.3,3.2-4.4,5.5c-1.2,2.4-1.7,5.4-1.7,9.2v52.7
				c-0.1,2.1,0,4,0.3,5.5c0.3,1.5,0.7,3.2,1.3,4.9c0.6,1.7,1.5,3.2,2.8,4.6c1.4,1.5,3.4,2.5,6.2,3.3c2.7,0.7,5.3,1.1,7.8,1.1
				c1.3,0,2.6-0.1,4-0.3c1.4-0.2,2.7-0.4,4-0.8c1.3-0.4,2.5-0.9,3.7-1.4c1.1-0.6,2-1.2,2.7-2c1.3-1.4,2.2-2.9,2.8-4.5
				c0.6-1.6,1-3.1,1.3-4.5c0.3-1.4,0.4-3.1,0.4-5.1L652.2,47.5z"/>
			<path d="M633.2,124.2c-3.1,0-6.3-0.5-9.5-1.4c-3.4-1-6.1-2.5-7.9-4.5c-1.6-1.7-2.9-3.7-3.7-5.8c-0.8-2-1.3-3.9-1.6-5.7
				c-0.3-1.8-0.4-3.3-0.4-4.6V47.5c0-3.6,0.5-7,1.6-9.9c1.1-3,2.9-5.6,5.2-7.7c1-0.9,2.2-1.7,3.6-2.4c1.3-0.6,2.8-1.2,4.2-1.6
				c1.4-0.4,2.9-0.7,4.3-0.9c1.5-0.2,2.9-0.3,4.2-0.3c1.2,0,2.5,0.1,4,0.3c1.5,0.2,3,0.5,4.5,0.9c1.5,0.4,2.9,0.9,4.3,1.5
				c1.4,0.6,2.7,1.4,3.7,2.3c4.8,4.2,7.2,10.2,7.2,17.8v55.4c0,1.3-0.2,2.7-0.6,4.5c-0.4,1.7-0.9,3.5-1.7,5.4
				c-0.8,2-2.1,3.9-3.7,5.6c-2,2-4.7,3.5-8.1,4.5C639.5,123.7,636.3,124.2,633.2,124.2z M633.2,31.4c-1.8,0-3.8,0.2-5.8,0.7
				c-1.9,0.4-3.6,1.2-5.2,2.3c-1.5,1.1-2.8,2.7-3.8,4.8c-1,2.1-1.5,4.8-1.5,8.3v52.7c-0.1,2.1,0,3.8,0.2,5.2c0.2,1.4,0.6,3,1.2,4.5
				c0.5,1.4,1.3,2.8,2.4,3.9c1.1,1.2,2.8,2.1,5.2,2.7c2.6,0.7,5,1,7.3,1c1.2,0,2.5-0.1,3.7-0.2c1.3-0.2,2.5-0.4,3.7-0.8
				c1.2-0.4,2.3-0.8,3.3-1.3c0.9-0.4,1.6-1,2.1-1.5c1.1-1.2,1.9-2.5,2.4-3.8c0.6-1.5,1-2.9,1.2-4.2c0.2-1.3,0.4-2.9,0.4-4.7
				l0.1-53.4c0-2.7-0.4-5.1-1.1-7c-0.7-1.9-1.6-3.5-2.7-4.7c-0.7-0.7-1.6-1.3-2.6-1.8c-1.1-0.6-2.3-1.1-3.5-1.5
				c-1.2-0.4-2.4-0.7-3.7-0.8C635.2,31.5,634.1,31.4,633.2,31.4z"/>
		</g>
		<g>
			<path d="M713.6,100.8c0,0.3,0,0.9,0,2.1c0,1.1-0.2,2.5-0.5,4c-0.3,1.6-0.9,3.3-1.6,5.1c-0.7,1.8-1.8,3.5-3.3,5
				c-1.7,1.7-4.1,3-7.2,3.9c-3.1,0.9-6.1,1.3-9,1.3c-2.9,0-5.9-0.4-9-1.3c-3.1-0.9-5.4-2.2-7-3.9c-1.5-1.5-2.5-3.2-3.3-5.1
				c-0.7-1.9-1.2-3.7-1.5-5.3c-0.3-1.7-0.4-3.1-0.4-4.3c0-1.2,0-1.9,0-2.2V47.5c0-3.4,0.5-6.5,1.5-9.2c1-2.7,2.5-5,4.7-6.9
				c0.9-0.8,1.9-1.5,3.1-2.1c1.2-0.6,2.5-1.1,3.9-1.5c1.4-0.4,2.7-0.7,4.1-0.9c1.4-0.2,2.6-0.3,3.8-0.3c1.1,0,2.4,0.1,3.8,0.3
				c1.4,0.2,2.8,0.4,4.2,0.8c1.4,0.4,2.7,0.9,4,1.4c1.2,0.6,2.3,1.2,3.1,2c4.4,3.8,6.5,9.3,6.5,16.3V100.8z M710.9,47.5
				c0-3-0.4-5.6-1.2-7.7c-0.8-2.1-1.9-3.9-3.1-5.4c-0.9-0.9-1.9-1.6-3.1-2.2c-1.2-0.6-2.5-1.2-3.8-1.6c-1.3-0.4-2.7-0.7-4-0.9
				c-1.4-0.2-2.6-0.3-3.6-0.3c-2,0-4,0.2-6.2,0.7c-2.2,0.5-4.2,1.4-6,2.7c-1.8,1.3-3.3,3.2-4.4,5.5c-1.2,2.4-1.7,5.4-1.7,9.2v52.7
				c-0.1,2.1,0,4,0.3,5.5c0.3,1.5,0.7,3.2,1.3,4.9c0.6,1.7,1.5,3.2,2.8,4.6c1.4,1.5,3.4,2.5,6.2,3.3c2.7,0.7,5.3,1.1,7.8,1.1
				c1.3,0,2.6-0.1,4-0.3c1.4-0.2,2.7-0.4,4-0.8c1.3-0.4,2.5-0.9,3.7-1.4c1.1-0.6,2-1.2,2.7-2c1.3-1.4,2.2-2.9,2.8-4.5
				c0.6-1.6,1-3.1,1.3-4.5c0.3-1.4,0.4-3.1,0.4-5.1L710.9,47.5z"/>
			<path d="M691.9,124.2c-3.1,0-6.3-0.5-9.5-1.4c-3.4-1-6.1-2.5-7.9-4.5c-1.6-1.7-2.9-3.7-3.7-5.8c-0.8-2-1.3-3.9-1.6-5.7
				c-0.3-1.8-0.4-3.3-0.4-4.6V47.5c0-3.6,0.5-7,1.6-9.9c1.1-3,2.9-5.6,5.2-7.7c1-0.9,2.2-1.7,3.6-2.4c1.3-0.6,2.8-1.2,4.2-1.6
				c1.4-0.4,2.9-0.7,4.3-0.9c1.5-0.2,2.9-0.3,4.2-0.3c1.2,0,2.5,0.1,4,0.3c1.5,0.2,3,0.5,4.5,0.9c1.5,0.4,2.9,0.9,4.3,1.5
				c1.4,0.6,2.7,1.4,3.7,2.3c4.8,4.2,7.2,10.2,7.2,17.8v55.4c0,1.3-0.2,2.7-0.6,4.5c-0.4,1.7-0.9,3.5-1.7,5.4
				c-0.8,2-2.1,3.9-3.7,5.6c-2,2-4.7,3.5-8.1,4.5C698.2,123.7,695,124.2,691.9,124.2z M691.9,31.4c-1.8,0-3.8,0.2-5.8,0.7
				c-1.9,0.4-3.6,1.2-5.2,2.3c-1.5,1.1-2.8,2.7-3.8,4.8c-1,2.1-1.5,4.8-1.5,8.3v52.7c-0.1,2.1,0,3.8,0.2,5.2c0.2,1.4,0.6,3,1.2,4.5
				c0.5,1.4,1.3,2.8,2.4,3.9c1.1,1.2,2.8,2.1,5.2,2.7c2.6,0.7,5,1,7.3,1c1.2,0,2.5-0.1,3.7-0.2c1.3-0.2,2.5-0.4,3.7-0.8
				c1.2-0.4,2.3-0.8,3.3-1.3c0.9-0.4,1.6-1,2.1-1.5c1.1-1.2,1.9-2.5,2.4-3.8c0.6-1.5,1-2.9,1.2-4.2c0.2-1.3,0.4-2.9,0.4-4.7
				l0.1-53.4c0-2.7-0.4-5.1-1.1-7c-0.7-1.9-1.6-3.5-2.7-4.7c-0.7-0.7-1.6-1.3-2.6-1.8c-1.1-0.6-2.3-1.1-3.5-1.5
				c-1.2-0.4-2.4-0.7-3.7-0.8C693.9,31.5,692.8,31.4,691.9,31.4z"/>
		</g>
		<g>
			<path d="M748.5,30.3h-21.3v-1.2v-1.3h44.9v1.3v1.3l0.1-0.1h-21v90.6h-1.4h-1.3V30.3z"/>
			<polygon points="753.2,122.9 746.5,122.9 746.5,32.3 725.3,32.3 725.3,25.8 774.1,25.8 774.1,28.3 774.1,31.2 774.1,32.3 
				773.1,32.3 770.1,32.3 753.2,32.3 			"/>
		</g>
	</g>
	<g>
		<path class="st0" d="M118.2,9.5C98.6,2.3,77.2,9.4,65.7,25.7c-19.8-1.9-39.2,9.6-46.5,29.2c-8.7,23.3,3.2,49.3,26.6,57.9
			c3.7,1.4,7.5,2.2,11.2,2.6c4.8,10.7,13.6,19.5,25.5,23.9c23.3,8.7,49.3-3.2,57.9-26.6c4.4-11.8,3.5-24.2-1.4-34.7
			c2.3-3.2,4.2-6.7,5.7-10.6C153.4,44.1,141.5,18.2,118.2,9.5z"/>
		<path class="st1" d="M124.7,75.9c-0.6-2.2-2.9-3.6-5.1-3c-1.2,0.3-2.2,1.2-2.7,2.3L103.7,74c0-0.4,0.1-0.8,0.1-1.2
			c0-4.9-2.2-9.3-5.7-12.3l6.1-8.3l8.4,6.2c0,0.1-0.1,0.2-0.1,0.4c-0.6,2.2,0.7,4.6,2.9,5.2c2.2,0.6,4.5-0.7,5.2-2.9
			c0.6-2-0.5-4.1-2.3-5l2.4-23.1c1.5-0.3,2.8-1.4,3.2-3c0.6-2.2-0.7-4.6-2.9-5.2c-2.2-0.6-4.6,0.7-5.2,2.9c-0.2,0.5-0.2,1.1-0.1,1.6
			l-21.2,9.3c-0.5-0.7-1.3-1.2-2.1-1.4c-2.2-0.6-4.5,0.7-5.2,2.9c-0.6,2.2,0.7,4.6,2.9,5.2c1.4,0.4,2.7,0.1,3.8-0.8l8.6,6.3
			l-6.1,8.3c-2.5-1.6-5.5-2.6-8.7-2.6c-2.1,0-4.2,0.4-6.1,1.2l-5.1-11.2c1.2-1,1.8-2.7,1.4-4.3c-0.6-2.2-2.9-3.6-5.1-3
			c-2.2,0.6-3.6,2.9-3,5.2c0.6,2.1,2.6,3.4,4.7,3l5.2,11.2c-4.4,2.5-7.4,7-8,12.2l-10.6-1l1-10.3c0.1,0,0.3,0,0.4-0.1
			c2.2-0.6,3.6-2.9,3-5.2c-0.6-2.2-2.9-3.6-5.1-3c-2,0.6-3.3,2.5-3.1,4.5l-21.1,9.7c-1-1.2-2.6-1.7-4.2-1.3c-2.2,0.6-3.6,2.9-3,5.2
			c0.6,2.2,2.9,3.6,5.1,3c0.5-0.2,1-0.4,1.5-0.7l18.8,13.5c-0.3,0.8-0.4,1.7-0.1,2.6c0.6,2.2,2.9,3.6,5.1,3c2.2-0.6,3.6-2.9,3-5.2
			c-0.4-1.4-1.4-2.4-2.6-2.8l1.1-10.6l10.8,1c0.1,4.9,2.4,9.2,5.9,12l-7.8,10.8c-0.8-0.3-1.7-0.4-2.7-0.2c-2.2,0.6-3.6,2.9-3,5.2
			c0.6,2.2,2.9,3.6,5.1,3c2.2-0.6,3.6-2.9,3-5.2c-0.1-0.6-0.4-1.1-0.7-1.5l7.9-10.8c2.4,1.5,5.3,2.4,8.4,2.4c1.9,0,3.7-0.3,5.4-0.9
			l4.8,10.4l-9.5,4.3c-0.1-0.1-0.2-0.2-0.3-0.3c-1.7-1.6-4.3-1.6-6,0c-1.7,1.6-1.6,4.3,0,5.9c1.5,1.5,3.8,1.6,5.5,0.4l19,13.4
			c-0.5,1.5-0.2,3.1,1,4.3c1.7,1.6,4.3,1.6,6,0c1.7-1.6,1.7-4.3,0-5.9c-0.4-0.4-0.9-0.7-1.4-0.9l2.3-23c0.8-0.1,1.6-0.5,2.3-1.2
			c1.7-1.6,1.6-4.3,0-5.9c-1.7-1.6-4.3-1.6-6,0c-1,1-1.4,2.4-1.2,3.6l-9.7,4.4L95,87.1c4.2-2.2,7.3-6.2,8.4-10.9l13.1,1.2
			c0,0.2,0.1,0.5,0.1,0.7c0.6,2.2,2.9,3.6,5.1,3C124,80.5,125.3,78.2,124.7,75.9z M118.3,32.8c0,0,0.1,0,0.1,0L116,55.7
			c-0.8,0.1-1.6,0.4-2.2,0.9l-8.4-6.2L118.3,32.8z M95.1,42.8c0-0.1,0.1-0.2,0.1-0.4c0.2-0.6,0.2-1.2,0.1-1.8l21.1-9.3
			c0,0,0,0.1,0.1,0.1l-12.8,17.7L95.1,42.8z M57.5,82.7c-0.1,0-0.3,0-0.4,0.1c-0.6,0.2-1.1,0.5-1.6,0.8L36.8,70.2c0,0,0-0.1,0.1-0.1
			l21.8,2L57.5,82.7z M58.8,69.9l-21.8-2c0,0,0-0.1,0-0.1l20.9-9.6c0.5,0.7,1.1,1.2,1.9,1.5L58.8,69.9z M110.4,95.1
			c0.1,0.1,0.2,0.2,0.3,0.3c0.4,0.4,1,0.7,1.5,0.9l-2.2,23c0,0-0.1,0-0.1,0l-9.1-19.9L110.4,95.1z M107.8,120.2
			C107.8,120.2,107.8,120.3,107.8,120.2L88.9,107c0.3-0.8,0.4-1.6,0.3-2.4l9.5-4.3L107.8,120.2z M89.4,76.5l-6.9,4v-8v-8l6.9,4
			l6.9,4L89.4,76.5z"/>
	</g>
</g>
</svg>
